if (_typeface_js && _typeface_js.loadFace) _typeface_js.loadFace({"glyphs":{"S":{"x_min":0,"x_max":0,"ha":667,"o":"m 75 84 l 88 204 q 109 183 95 195 q 154 144 122 170 q 234 100 187 118 q 327 81 280 81 q 433 122 390 81 q 476 233 476 163 q 435 324 476 283 q 336 396 394 365 q 218 461 277 427 q 118 548 159 495 q 77 669 77 601 q 154 854 77 777 q 345 930 230 930 q 575 865 472 930 l 538 763 q 472 803 534 775 q 341 832 409 832 q 248 797 288 832 q 208 707 208 763 q 248 610 208 652 q 346 537 288 568 q 461 472 404 506 q 559 382 519 438 q 600 251 600 326 q 524 56 600 131 q 323 -18 448 -18 q 188 7 251 -18 q 100 58 126 33 l 75 84 "},"/":{"x_min":0,"x_max":0,"ha":404,"o":"m 361 912 l 61 -338 l -37 -338 l 258 912 l 361 912 "},"y":{"x_min":0,"x_max":0,"ha":660,"o":"m 651 701 l 323 -116 q 213 -280 280 -223 q 72 -337 147 -337 q 0 -322 38 -337 l -19 -204 q 51 -218 19 -218 q 230 -70 173 -218 l 259 5 l 69 568 l 8 683 l 144 701 l 306 238 l 325 137 l 354 238 l 529 683 l 651 701 "},"≈":{"x_min":0,"x_max":0,"ha":926,"o":"m 175 722 q 462 841 294 841 q 750 722 630 841 q 870 434 870 602 q 750 147 870 266 q 462 29 630 29 q 175 147 294 29 q 55 434 55 266 q 175 722 55 602 "},"Ž":{"x_min":0,"x_max":0,"ha":786,"o":"m 50 0 l 44 34 l 479 723 l 540 807 l 75 807 l 105 913 l 725 913 l 730 879 l 297 191 l 233 105 l 745 105 l 745 0 l 50 0 m 447 988 l 355 988 l 183 1187 l 259 1215 l 401 1086 l 543 1215 l 619 1187 l 447 988 "},"Á":{"x_min":0,"x_max":0,"ha":793,"o":"m -2 0 l 350 913 l 434 932 l 718 152 l 787 0 l 636 0 l 548 238 l 208 238 l 118 0 l -2 0 m 368 662 l 245 344 l 513 344 l 398 663 l 384 718 l 368 662 m 465 1215 l 618 1215 l 369 988 l 293 1016 l 465 1215 "},"g":{"x_min":0,"x_max":0,"ha":718,"o":"m 340 163 q 236 183 286 163 q 197 105 197 134 q 245 66 197 75 q 363 59 294 58 q 500 53 431 59 q 618 7 569 47 q 666 -106 666 -31 q 566 -275 666 -212 q 337 -337 466 -337 q 187 -314 251 -337 q 97 -263 123 -291 q 59 -213 70 -236 l 48 -190 l 134 -111 q 220 -214 159 -180 q 352 -248 280 -248 q 486 -216 430 -248 q 541 -138 541 -184 q 509 -81 541 -100 q 427 -61 476 -62 q 320 -58 377 -61 q 214 -49 263 -55 q 132 -11 165 -43 q 100 76 100 19 q 177 216 100 147 q 80 426 80 294 q 160 625 80 547 q 368 704 240 704 q 441 694 408 704 q 486 675 473 684 l 500 665 l 525 683 l 707 683 l 679 588 l 568 588 q 613 445 613 531 q 534 237 613 311 q 340 163 454 163 m 245 563 q 201 433 201 508 q 245 304 201 358 q 348 250 290 250 q 449 303 406 250 q 491 433 491 356 q 449 563 491 509 q 348 618 406 618 q 245 563 290 618 "},"²":{"x_min":0,"x_max":0,"ha":485,"o":"m 419 397 l 79 397 l 70 440 l 91 461 q 134 504 112 481 q 184 563 155 527 q 236 630 213 598 q 273 699 258 662 q 288 763 288 736 q 268 828 288 805 q 219 851 247 851 q 112 801 155 851 l 72 879 q 231 933 136 933 q 350 894 301 933 q 400 780 400 855 q 372 680 400 734 q 304 579 345 626 q 240 511 262 533 q 204 477 219 490 l 427 477 l 419 397 "},"–":{"x_min":0,"x_max":0,"ha":628,"o":"m 43 394 l 594 394 l 566 291 l 43 291 l 43 394 "},"ë":{"x_min":0,"x_max":0,"ha":683,"o":"m 377 704 q 613 377 602 704 l 581 341 l 194 341 q 246 163 197 237 q 390 88 295 88 q 497 112 443 88 q 580 159 551 136 l 608 183 l 627 77 q 607 61 620 72 q 559 30 594 51 q 470 -4 523 9 q 356 -18 416 -18 q 149 86 227 -18 q 70 329 70 191 q 149 596 70 488 q 377 704 227 704 m 361 613 q 201 430 237 613 l 487 430 q 454 557 483 501 q 361 613 425 613 m 308 876 q 287 822 308 844 q 238 800 266 800 q 190 822 211 800 q 169 876 169 844 q 190 929 169 907 q 238 952 211 952 q 287 929 266 952 q 308 876 308 907 m 563 876 q 543 822 563 844 q 494 800 522 800 q 445 822 466 800 q 425 876 425 844 q 445 929 425 907 q 494 952 466 952 q 543 929 522 952 q 563 876 563 907 "},"ƒ":{"x_min":0,"x_max":0,"ha":671,"o":"m 609 683 l 548 588 l 408 588 l 323 -16 q 218 -245 304 -155 q 31 -337 131 -336 l -1 -241 q 133 -183 80 -241 q 201 -16 186 -125 l 286 588 l 190 588 l 209 683 l 297 683 l 311 784 q 404 982 329 918 q 572 1047 480 1047 q 722 1000 650 1047 l 655 904 q 563 937 618 937 q 485 903 520 937 q 440 809 450 869 l 419 683 l 609 683 "},"Î":{"x_min":0,"x_max":0,"ha":433,"o":"m 280 913 l 280 104 l 294 0 l 155 0 l 155 786 l 137 913 l 280 913 m 177 1215 l 263 1215 l 436 1016 l 362 988 l 219 1118 l 79 988 l 5 1016 l 177 1215 "},"e":{"x_min":0,"x_max":0,"ha":683,"o":"m 377 704 q 613 377 602 704 l 581 341 l 194 341 q 246 163 197 237 q 390 88 295 88 q 497 112 443 88 q 580 159 551 136 l 608 183 l 627 77 q 607 61 620 72 q 559 30 594 51 q 470 -4 523 9 q 356 -18 416 -18 q 149 86 227 -18 q 70 329 70 191 q 149 596 70 488 q 377 704 227 704 m 361 613 q 201 430 237 613 l 487 430 q 454 557 483 501 q 361 613 425 613 "},"Ã":{"x_min":0,"x_max":0,"ha":793,"o":"m -2 0 l 350 913 l 434 932 l 718 152 l 787 0 l 636 0 l 548 238 l 208 238 l 118 0 l -2 0 m 368 662 l 245 344 l 513 344 l 398 663 l 384 718 l 368 662 m 559 1143 l 619 1107 q 586 1054 598 1069 q 546 1023 575 1038 q 476 1008 518 1008 q 377 1033 430 1008 q 302 1058 325 1058 q 233 1012 263 1058 l 173 1048 q 206 1101 194 1086 q 246 1132 218 1116 q 316 1147 275 1147 q 410 1120 356 1147 q 488 1094 463 1094 q 559 1143 537 1094 "},"J":{"x_min":0,"x_max":0,"ha":413,"o":"m 272 913 l 272 52 q 203 -181 272 -86 q 0 -276 134 -276 q -75 -268 -33 -276 l -68 -145 q 0 -163 -29 -163 q 106 -100 65 -163 q 147 52 147 -37 l 147 786 l 129 913 l 272 913 "},"»":{"x_min":0,"x_max":0,"ha":835,"o":"m 627 341 l 387 572 l 441 661 l 779 343 l 441 25 l 387 113 l 627 341 m 309 341 l 69 572 l 123 661 l 461 343 l 123 25 l 69 113 l 309 341 "},"∆":{"x_min":0,"x_max":0,"ha":926,"o":"m 750 722 q 870 434 870 602 q 750 147 870 266 q 462 29 630 29 q 175 147 294 29 q 55 434 55 266 q 175 722 55 602 q 462 841 294 841 q 750 722 630 841 m 757 436 l 306 677 l 306 197 l 757 436 "},"©":{"x_min":0,"x_max":0,"ha":1097,"o":"m 727 644 l 676 572 q 556 633 633 633 q 461 584 495 633 q 426 461 426 534 q 461 335 426 387 q 563 283 497 283 q 635 302 598 283 q 691 338 672 320 l 711 358 l 727 266 q 704 246 719 258 q 637 215 688 234 q 529 195 586 195 q 379 270 434 195 q 323 445 323 345 q 386 637 323 558 q 559 716 448 716 q 727 644 666 716 m 1020 473 q 884 118 1020 254 q 526 -18 748 -18 q 203 111 330 -18 q 76 433 76 240 q 215 786 76 651 q 583 922 355 922 q 897 793 773 922 q 1020 473 1020 665 m 934 455 q 827 740 934 629 q 554 851 720 851 q 279 736 393 851 q 165 450 165 622 q 277 168 165 280 q 556 55 388 55 q 823 170 712 55 q 934 455 934 284 "},"˘":{"x_min":0,"x_max":0,"ha":558,"o":"m 277 870 q 352 904 316 870 q 402 972 387 938 l 419 1005 l 495 977 q 488 956 493 969 q 466 909 484 943 q 425 848 448 875 q 363 800 402 822 q 277 779 323 779 q 175 810 220 779 q 106 878 129 841 q 72 947 83 915 l 59 977 l 136 1005 q 146 983 138 997 q 172 939 154 969 q 219 890 191 909 q 277 870 247 870 "},"≥":{"x_min":0,"x_max":0,"ha":1683,"o":"m 888 725 l 1620 483 l 888 244 l 888 725 m 189 535 q 211 483 211 513 q 189 430 211 452 q 137 408 168 408 q 84 430 105 408 q 62 483 62 452 q 84 535 62 513 q 137 556 106 556 q 189 535 168 556 m 474 535 q 495 483 495 513 q 474 430 495 452 q 422 408 452 408 q 369 430 391 408 q 347 483 347 452 q 369 535 347 513 q 422 556 391 556 q 474 535 452 556 m 752 535 q 773 483 773 513 q 752 430 773 452 q 700 408 730 408 q 647 430 669 408 q 625 483 625 452 q 647 535 625 513 q 700 556 669 556 q 752 535 730 556 "},"ò":{"x_min":0,"x_max":0,"ha":768,"o":"m 68 330 q 160 599 68 494 q 408 704 252 704 q 619 616 538 704 q 700 356 700 527 q 607 90 700 200 q 361 -18 515 -18 q 221 17 280 -18 q 134 97 162 52 q 89 199 105 141 q 70 284 73 256 q 68 330 68 312 m 247 533 q 195 343 195 455 q 247 152 195 230 q 383 75 298 75 q 520 152 468 75 q 572 343 572 230 q 520 533 572 455 q 383 611 468 611 q 247 533 298 611 m 163 1005 l 316 1005 l 488 807 l 412 779 l 163 1005 "},"ﬄ":{"x_min":0,"x_max":0,"ha":1292,"o":"m 256 588 l 256 143 l 270 0 l 140 0 l 140 588 l 55 588 l 55 683 l 140 683 l 140 770 q 169 894 140 838 q 243 982 198 950 q 336 1030 288 1013 q 427 1047 384 1047 q 670 972 570 1047 q 865 1047 758 1047 q 1019 1025 957 1047 l 1159 975 l 1159 104 l 1173 0 l 1043 0 l 1043 898 q 879 945 976 945 q 745 897 797 945 q 694 782 694 848 l 694 683 l 888 683 l 847 588 l 694 588 l 694 143 l 708 0 l 577 0 l 577 588 l 256 588 m 577 770 q 601 882 577 832 q 441 945 522 945 q 308 897 359 945 q 256 782 256 848 l 256 683 l 577 683 l 577 770 "},"^":{"x_min":0,"x_max":0,"ha":867,"o":"m 765 444 l 668 444 l 431 870 l 195 444 l 98 444 l 393 983 l 470 983 q 765 444 745 477 "},"«":{"x_min":0,"x_max":0,"ha":835,"o":"m 447 572 l 206 341 l 447 113 l 393 25 l 55 343 l 393 661 l 447 572 m 765 572 l 525 341 l 765 113 l 711 25 l 373 343 l 711 661 l 765 572 "},"D":{"x_min":0,"x_max":0,"ha":928,"o":"m 483 913 q 753 797 641 913 q 865 462 865 680 q 748 131 865 263 q 441 0 632 0 l 155 0 l 155 786 l 137 913 l 483 913 m 458 813 l 280 813 l 280 100 l 458 100 q 652 203 575 100 q 730 454 730 306 q 652 708 730 602 q 458 813 575 813 "},"ł":{"x_min":0,"x_max":0,"ha":381,"o":"m 243 1048 l 243 500 l 340 555 l 359 450 l 243 383 l 243 104 l 256 0 l 131 0 l 131 316 l 59 275 l 13 368 l 131 434 l 131 905 l 113 1033 l 243 1048 "},"ÿ":{"x_min":0,"x_max":0,"ha":660,"o":"m 651 701 l 323 -116 q 213 -280 280 -223 q 72 -337 147 -337 q 0 -322 38 -337 l -19 -204 q 51 -218 19 -218 q 230 -70 173 -218 l 259 5 l 69 568 l 8 683 l 144 701 l 306 238 l 325 137 l 354 238 l 529 683 l 651 701 m 298 876 q 277 822 298 844 q 229 800 256 800 q 180 822 201 800 q 159 876 159 844 q 180 929 159 907 q 229 952 201 952 q 277 929 256 952 q 298 876 298 907 m 554 876 q 533 822 554 844 q 484 800 512 800 q 436 822 456 800 q 415 876 415 844 q 436 929 415 907 q 484 952 456 952 q 533 929 512 952 q 554 876 554 907 "},"Ł":{"x_min":0,"x_max":0,"ha":695,"o":"m 25 368 l 152 440 l 152 786 l 134 913 l 277 913 l 277 513 l 461 618 l 480 512 l 277 395 l 277 102 l 641 102 l 613 0 l 152 0 l 152 320 l 70 275 l 25 368 "},"í":{"x_min":0,"x_max":0,"ha":381,"o":"m 248 698 l 248 104 l 262 0 l 131 0 l 131 555 l 113 683 l 248 698 m 259 1005 l 412 1005 l 163 779 l 87 807 l 259 1005 "},"ˆ":{"x_min":0,"x_max":0,"ha":558,"o":"m 234 1005 l 320 1005 l 493 807 l 419 779 l 276 908 l 136 779 l 62 807 l 234 1005 "},"w":{"x_min":0,"x_max":0,"ha":1122,"o":"m 1113 701 l 826 -18 l 729 0 l 562 488 l 356 -18 l 259 0 l 69 568 l 8 683 l 140 701 l 301 238 l 322 138 l 351 238 l 505 630 l 477 683 l 612 701 l 770 237 l 790 138 l 819 238 l 994 683 l 1113 701 "},"$":{"x_min":0,"x_max":0,"ha":667,"o":"m 376 1048 l 376 929 q 575 865 483 922 l 538 757 q 484 791 534 766 q 376 823 433 816 l 376 525 q 443 488 422 500 q 501 450 463 477 q 556 397 538 422 q 588 334 573 373 q 604 251 604 295 q 542 72 604 143 q 376 -13 480 1 l 376 -130 l 304 -130 l 304 -16 q 204 2 251 -13 q 132 36 158 18 q 90 68 106 54 q 76 83 75 81 l 88 197 q 117 168 98 186 q 192 120 136 151 q 304 83 248 88 l 304 411 q 237 448 258 436 q 179 488 216 461 q 124 537 141 515 q 92 595 106 559 q 77 669 77 630 q 140 840 77 766 q 304 927 204 913 l 304 1048 l 376 1048 m 472 233 q 376 368 472 304 l 376 88 q 445 140 419 102 q 472 233 472 177 m 208 707 q 304 565 208 625 l 304 822 q 235 782 262 812 q 208 707 208 752 "},"∫":{"x_min":0,"x_max":0,"ha":695,"o":"m 136 0 l 136 91 l 306 91 l 306 679 l 162 634 l 127 719 l 423 818 l 423 91 l 595 91 l 581 0 l 136 0 "},"\\":{"x_min":0,"x_max":0,"ha":494,"o":"m 400 -338 l 6 912 l 112 912 l 494 -338 l 400 -338 "},"Ì":{"x_min":0,"x_max":0,"ha":433,"o":"m 280 913 l 280 104 l 294 0 l 155 0 l 155 786 l 137 913 l 280 913 m 1 1215 l 154 1215 l 326 1016 l 250 988 l 1 1215 "},"µ":{"x_min":0,"x_max":0,"ha":721},"Ç":{"x_min":0,"x_max":0,"ha":857,"o":"m 795 816 l 732 722 q 498 827 630 827 q 281 714 368 827 q 195 451 195 601 q 290 189 195 290 q 508 88 384 88 q 631 118 563 88 q 738 176 698 147 l 777 205 l 808 102 q 782 81 800 94 q 720 43 763 69 q 613 0 676 16 q 486 -18 551 -18 q 188 103 313 -18 q 62 437 62 225 q 190 789 62 648 q 504 930 319 930 q 795 816 670 930 m 433 -80 l 447 -9 l 487 -9 q 543 -53 501 -27 q 613 -107 584 -79 q 643 -176 643 -136 q 595 -287 643 -248 q 481 -326 548 -326 q 348 -283 408 -326 l 381 -215 q 479 -247 413 -247 q 558 -195 558 -247 q 538 -158 558 -176 q 484 -118 519 -140 q 433 -80 450 -97 "},"’":{"x_min":0,"x_max":0,"ha":375,"o":"m 133 583 l 83 632 q 136 699 112 659 q 161 770 161 738 q 150 811 161 797 q 111 836 140 825 l 111 848 q 134 911 111 886 q 194 936 156 936 q 253 910 229 936 q 277 836 277 884 q 240 702 277 776 q 133 583 202 629 "},"-":{"x_min":0,"x_max":0,"ha":419,"o":"m 43 394 l 386 394 l 358 291 l 43 291 l 43 394 "},"Q":{"x_min":0,"x_max":0,"ha":945,"o":"m 480 930 q 778 802 675 930 q 882 465 882 673 q 777 142 882 277 q 513 -13 672 6 l 822 -144 l 769 -261 l 436 -102 l 436 -15 q 163 125 262 -5 q 63 448 63 255 q 183 791 63 651 q 480 930 302 930 m 276 723 q 200 456 200 615 q 276 190 200 298 q 473 81 352 81 q 670 190 594 81 q 745 456 745 298 q 670 723 745 615 q 473 832 594 832 q 276 723 352 832 "},"M":{"x_min":0,"x_max":0,"ha":1242,"o":"m 629 102 l 306 545 l 261 637 l 261 104 l 275 0 l 147 0 l 147 786 l 129 913 l 220 913 l 634 323 l 1009 913 l 1087 913 l 1087 104 l 1101 0 l 962 0 l 962 643 l 913 545 l 629 102 "},"C":{"x_min":0,"x_max":0,"ha":857,"o":"m 795 816 l 732 722 q 498 827 630 827 q 281 714 368 827 q 195 451 195 601 q 290 189 195 290 q 508 88 384 88 q 631 118 563 88 q 738 176 698 147 l 777 205 l 808 102 q 782 81 800 94 q 720 43 763 69 q 613 0 676 16 q 486 -18 551 -18 q 188 103 313 -18 q 62 437 62 225 q 190 789 62 648 q 504 930 319 930 q 795 816 670 930 "},"œ":{"x_min":0,"x_max":0,"ha":1189,"o":"m 70 330 q 163 599 70 494 q 411 704 255 704 q 641 595 555 704 q 870 704 722 704 q 963 686 922 704 q 1028 638 1004 669 q 1068 574 1052 607 q 1092 500 1084 541 q 1102 432 1100 458 q 1107 377 1105 406 l 1075 341 l 688 341 q 740 162 691 237 q 883 87 788 87 q 990 111 936 87 q 1072 158 1044 134 l 1101 181 l 1120 77 q 1100 61 1113 72 q 1052 30 1087 51 q 963 -4 1016 9 q 850 -18 909 -18 q 719 15 779 -18 q 623 104 659 48 q 363 -18 515 -18 q 224 17 283 -18 q 136 97 165 52 q 92 199 108 141 q 73 284 76 256 q 70 330 70 312 m 250 536 q 198 343 198 456 q 250 150 198 229 q 386 70 301 70 q 522 150 470 70 q 573 343 573 229 q 522 536 573 456 q 386 615 470 615 q 250 536 301 615 m 854 613 q 695 430 732 613 l 980 430 q 947 557 976 501 q 854 613 918 613 "},"!":{"x_min":0,"x_max":0,"ha":367,"o":"m 273 69 q 249 7 273 33 q 190 -18 225 -18 q 131 7 155 -18 q 106 69 106 33 q 131 129 106 104 q 190 154 155 154 q 249 129 225 154 q 273 69 273 104 m 256 1050 l 236 263 l 143 250 l 125 908 l 106 1032 l 256 1050 "},"ç":{"x_min":0,"x_max":0,"ha":667,"o":"m 615 607 l 541 513 q 386 607 476 607 q 243 531 295 607 q 190 351 190 455 q 240 166 190 244 q 387 88 291 88 q 492 112 440 88 q 569 159 544 136 l 595 183 l 615 77 q 597 61 609 72 q 551 30 584 51 q 466 -4 518 9 q 354 -18 413 -18 q 146 86 225 -18 q 68 329 68 191 q 152 595 68 486 q 388 704 237 704 q 615 607 534 704 m 319 -80 l 333 -9 l 373 -9 q 429 -53 387 -27 q 500 -107 470 -79 q 529 -176 529 -136 q 481 -287 529 -248 q 368 -326 434 -326 q 234 -283 294 -326 l 268 -215 q 365 -247 300 -247 q 444 -195 444 -247 q 425 -158 444 -176 q 370 -118 405 -140 q 319 -80 336 -97 "},"È":{"x_min":0,"x_max":0,"ha":695,"o":"m 155 0 l 155 786 l 137 913 l 612 913 l 612 811 l 280 811 l 280 519 l 570 519 l 543 416 l 280 416 l 280 102 l 627 102 l 600 0 l 155 0 m 161 1215 l 313 1215 l 486 1016 l 409 988 l 161 1215 "},"ﬁ":{"x_min":0,"x_max":0,"ha":836,"o":"m 704 698 l 704 104 l 718 0 l 587 0 l 587 556 l 581 588 l 256 588 l 256 143 l 270 0 l 140 0 l 140 588 l 55 588 l 55 683 l 140 683 l 140 770 q 169 894 140 838 q 243 982 198 950 q 336 1030 288 1013 q 427 1047 384 1047 q 569 1025 504 1047 q 661 980 634 1002 l 687 958 l 640 848 q 611 875 630 859 q 541 918 593 891 q 441 945 488 945 q 308 897 359 945 q 256 782 256 848 l 256 683 l 569 683 l 704 698 "},"{":{"x_min":0,"x_max":0,"ha":381,"o":"m 23 379 l 23 451 q 82 465 58 451 q 115 500 106 479 q 128 535 125 520 q 131 562 131 550 l 131 841 q 194 995 131 943 q 355 1048 256 1048 l 355 962 q 243 837 243 962 l 243 563 q 227 486 243 523 q 194 433 211 450 l 179 415 q 196 396 186 408 q 225 345 206 384 q 243 266 243 306 l 243 -125 q 355 -250 243 -250 l 355 -336 q 194 -283 256 -336 q 131 -129 131 -230 l 131 268 q 128 295 131 280 q 115 330 125 309 q 82 365 106 351 q 23 379 58 379 "},"X":{"x_min":0,"x_max":0,"ha":690,"o":"m 12 0 l 283 463 l 87 815 l 15 913 l 177 913 l 340 623 l 361 580 l 379 623 l 544 913 l 675 913 l 415 475 l 682 0 l 533 0 l 361 312 l 340 358 l 318 309 l 144 0 l 12 0 "},"ô":{"x_min":0,"x_max":0,"ha":768,"o":"m 68 330 q 160 599 68 494 q 408 704 252 704 q 619 616 538 704 q 700 356 700 527 q 607 90 700 200 q 361 -18 515 -18 q 221 17 280 -18 q 134 97 162 52 q 89 199 105 141 q 70 284 73 256 q 68 330 68 312 m 247 533 q 195 343 195 455 q 247 152 195 230 q 383 75 298 75 q 520 152 468 75 q 572 343 572 230 q 520 533 572 455 q 383 611 468 611 q 247 533 298 611 m 340 1005 l 426 1005 l 598 807 l 525 779 l 381 908 l 241 779 l 168 807 l 340 1005 "},"¼":{"x_min":0,"x_max":0,"ha":956,"o":"m 66 397 l 66 461 l 176 461 l 176 829 l 87 801 l 62 863 l 281 934 l 281 461 l 390 461 l 381 397 l 66 397 m 804 793 l 345 130 l 258 130 l 733 820 l 804 793 m 494 98 l 736 462 l 826 434 l 826 125 l 923 125 l 905 50 l 826 50 l 826 -11 l 834 -80 l 723 -80 l 723 50 l 504 50 l 494 98 m 725 125 l 725 288 l 727 338 l 705 293 l 604 143 l 584 123 l 623 125 l 725 125 "},"#":{"x_min":0,"x_max":0,"ha":978,"o":"m 863 255 l 658 255 l 632 0 l 525 0 l 551 255 l 348 255 l 322 0 l 215 0 l 241 255 l 40 255 l 40 344 l 251 344 l 279 602 l 79 602 l 79 691 l 288 691 l 312 913 l 418 913 l 394 691 l 597 691 l 620 913 l 727 913 l 704 691 l 912 691 l 901 602 l 695 602 l 668 344 l 875 344 l 863 255 m 561 344 l 588 602 l 386 602 l 358 344 l 561 344 "},"Ê":{"x_min":0,"x_max":0,"ha":695,"o":"m 155 0 l 155 786 l 137 913 l 612 913 l 612 811 l 280 811 l 280 519 l 570 519 l 543 416 l 280 416 l 280 102 l 627 102 l 600 0 l 155 0 m 337 1215 l 423 1215 l 595 1016 l 522 988 l 379 1118 l 238 988 l 165 1016 l 337 1215 "},")":{"x_min":0,"x_max":0,"ha":458,"o":"m 220 78 q 248 329 248 200 q 220 572 248 458 q 154 757 193 687 q 85 866 116 826 q 38 913 54 907 l 120 943 q 295 704 223 884 q 366 329 366 523 q 294 -68 366 131 q 120 -326 222 -269 l 38 -297 q 84 -243 52 -290 q 154 -120 116 -197 q 220 78 193 -43 "},"Å":{"x_min":0,"x_max":0,"ha":793,"o":"m -2 0 l 350 913 l 434 932 l 718 152 l 787 0 l 636 0 l 548 238 l 208 238 l 118 0 l -2 0 m 368 662 l 245 344 l 513 344 l 398 663 l 384 718 l 368 662 m 484 1184 q 522 1098 522 1148 q 484 1012 522 1048 q 395 976 445 976 q 309 1012 345 976 q 272 1098 272 1048 q 309 1184 272 1148 q 395 1220 345 1220 q 484 1184 445 1220 m 470 1100 q 448 1151 470 1129 q 397 1173 426 1173 q 345 1152 366 1173 q 323 1100 323 1130 q 345 1045 323 1070 q 397 1020 366 1020 q 450 1045 430 1020 q 470 1100 470 1069 "},"Δ":{"x_min":0,"x_max":0,"ha":926,"o":"m 750 722 q 870 434 870 602 q 750 147 870 266 q 462 29 630 29 q 175 147 294 29 q 55 434 55 266 q 175 722 55 602 q 462 841 294 841 q 750 722 630 841 m 757 436 l 306 677 l 306 197 l 757 436 "},"ø":{"x_min":0,"x_max":0,"ha":768,"o":"m 65 330 q 158 599 65 494 q 408 704 251 704 q 423 703 413 704 q 438 702 433 702 l 488 912 l 568 912 l 513 687 q 652 573 601 657 q 702 356 702 490 q 609 90 702 200 q 361 -18 516 -18 q 352 -17 358 -18 q 344 -16 347 -16 l 293 -231 l 218 -231 l 270 -5 q 173 50 215 11 q 111 131 131 90 q 80 221 91 172 q 67 293 69 270 q 65 330 65 315 m 198 343 q 224 197 198 263 q 295 98 250 131 l 416 611 q 383 615 400 615 q 249 536 300 615 q 198 343 198 456 m 568 343 q 486 573 568 495 l 365 70 l 383 70 q 517 150 466 70 q 568 343 568 229 "},"â":{"x_min":0,"x_max":0,"ha":703,"o":"m 156 505 l 94 595 q 113 613 100 602 q 159 648 126 625 q 248 687 193 672 q 366 702 304 702 q 516 659 456 702 q 575 525 575 616 l 575 156 q 590 80 575 119 q 622 20 605 41 l 637 0 l 508 -18 q 468 95 469 34 q 374 16 438 51 q 247 -18 309 -18 q 120 30 173 -18 q 68 154 68 79 q 177 340 68 269 q 458 411 286 411 l 458 461 q 354 609 458 609 q 270 593 309 609 q 206 557 230 577 q 169 522 183 537 l 156 505 m 298 81 q 386 110 340 81 q 458 168 431 138 l 458 322 q 193 175 193 312 q 220 109 193 137 q 298 81 247 81 m 305 1005 l 391 1005 l 563 807 l 490 779 l 347 908 l 206 779 l 133 807 l 305 1005 "},"}":{"x_min":0,"x_max":0,"ha":381,"o":"m 356 451 l 356 379 q 297 365 322 379 q 264 330 273 351 q 252 295 255 309 q 248 268 248 280 l 248 -129 q 186 -283 248 -230 q 25 -336 123 -336 l 25 -250 q 137 -125 137 -250 l 137 266 q 153 343 137 306 q 186 397 169 380 l 201 415 q 184 434 194 422 q 155 484 173 445 q 137 563 137 523 l 137 837 q 25 962 137 962 l 25 1048 q 186 995 123 1048 q 248 841 248 943 l 248 562 q 252 535 248 550 q 264 500 255 520 q 297 465 273 479 q 356 451 322 451 "},"‰":{"x_min":0,"x_max":0,"ha":1611,"o":"m 448 850 q 512 704 512 788 q 448 557 512 619 q 300 495 384 495 q 154 557 216 495 q 91 704 91 619 q 154 850 91 788 q 300 912 216 912 q 448 850 384 912 m 430 707 q 391 794 430 757 q 301 832 351 832 q 211 795 248 832 q 173 707 173 758 q 211 614 173 657 q 301 572 248 572 q 395 613 359 572 q 430 707 430 655 m 969 336 q 1033 190 1033 275 q 969 43 1033 105 q 820 -18 905 -18 q 675 43 737 -18 q 612 190 612 105 q 675 336 612 275 q 820 398 737 398 q 969 336 905 398 m 951 193 q 911 280 951 243 q 822 318 872 318 q 732 281 769 318 q 694 193 694 244 q 732 100 694 143 q 822 58 769 58 q 916 100 880 58 q 951 193 951 141 m 922 898 l 300 0 l 193 0 l 826 936 l 922 898 m 1459 336 q 1523 190 1523 275 q 1459 43 1523 105 q 1311 -18 1395 -18 q 1165 43 1227 -18 q 1102 190 1102 105 q 1165 336 1102 275 q 1311 398 1227 398 q 1459 336 1395 398 m 1441 193 q 1402 280 1441 243 q 1312 318 1362 318 q 1222 281 1259 318 q 1184 193 1184 244 q 1222 100 1184 143 q 1312 58 1259 58 q 1406 100 1370 58 q 1441 193 1441 141 "},"Ä":{"x_min":0,"x_max":0,"ha":793,"o":"m -2 0 l 350 913 l 434 932 l 718 152 l 787 0 l 636 0 l 548 238 l 208 238 l 118 0 l -2 0 m 368 662 l 245 344 l 513 344 l 398 663 l 384 718 l 368 662 m 337 1086 q 316 1032 337 1054 q 268 1009 295 1009 q 219 1032 240 1009 q 198 1086 198 1054 q 219 1139 198 1116 q 268 1162 240 1162 q 316 1139 295 1162 q 337 1086 337 1116 m 593 1086 q 572 1032 593 1054 q 523 1009 551 1009 q 475 1032 495 1009 q 454 1086 454 1054 q 475 1139 454 1116 q 523 1162 495 1162 q 572 1139 551 1162 q 593 1086 593 1116 "},"¸":{"x_min":0,"x_max":0,"ha":558,"o":"m 195 -80 l 209 -9 l 250 -9 q 305 -53 263 -27 q 376 -107 347 -79 q 405 -176 405 -136 q 358 -287 405 -248 q 244 -326 311 -326 q 111 -283 170 -326 l 144 -215 q 241 -247 176 -247 q 320 -195 320 -247 q 301 -158 320 -176 q 247 -118 281 -140 q 195 -80 212 -97 "},"a":{"x_min":0,"x_max":0,"ha":703,"o":"m 156 505 l 94 595 q 113 613 100 602 q 159 648 126 625 q 248 687 193 672 q 366 702 304 702 q 516 659 456 702 q 575 525 575 616 l 575 156 q 590 80 575 119 q 622 20 605 41 l 637 0 l 508 -18 q 468 95 469 34 q 374 16 438 51 q 247 -18 309 -18 q 120 30 173 -18 q 68 154 68 79 q 177 340 68 269 q 458 411 286 411 l 458 461 q 354 609 458 609 q 270 593 309 609 q 206 557 230 577 q 169 522 183 537 l 156 505 m 298 81 q 386 110 340 81 q 458 168 431 138 l 458 322 q 193 175 193 312 q 220 109 193 137 q 298 81 247 81 "},"—":{"x_min":0,"x_max":0,"ha":943,"o":"m 43 394 l 908 394 l 880 291 l 43 291 l 43 394 "},"=":{"x_min":0,"x_max":0,"ha":667,"o":"m 80 281 l 575 281 l 547 179 l 80 179 l 80 281 m 80 511 l 588 511 l 561 408 l 80 408 l 80 511 "},"N":{"x_min":0,"x_max":0,"ha":1039,"o":"m 898 913 l 898 104 l 907 0 l 841 0 l 320 583 l 261 673 l 261 104 l 275 0 l 147 0 l 147 786 l 129 913 l 213 913 l 723 336 l 784 245 l 784 786 l 766 913 l 898 913 "},"˚":{"x_min":0,"x_max":0,"ha":722,"o":"m 442 988 q 480 902 480 952 q 442 816 480 852 q 354 780 404 780 q 267 816 304 780 q 230 902 230 852 q 267 988 230 952 q 354 1025 304 1025 q 442 988 404 1025 m 429 904 q 406 955 429 933 q 355 977 384 977 q 303 956 325 977 q 281 904 281 934 q 303 850 281 875 q 355 825 325 825 q 409 849 388 825 q 429 904 429 873 "},"ú":{"x_min":0,"x_max":0,"ha":799,"o":"m 565 102 q 450 16 525 51 q 306 -18 376 -18 q 178 24 231 -18 q 125 145 125 66 l 125 555 l 106 683 l 241 698 l 241 284 q 261 134 241 179 q 343 90 281 90 q 436 106 393 90 q 504 142 480 122 q 541 177 529 162 l 555 194 l 555 555 l 537 683 l 672 698 l 672 156 q 687 80 672 119 q 719 20 702 41 l 734 0 l 605 -18 q 565 102 565 38 m 468 1005 l 620 1005 l 372 779 l 295 807 l 468 1005 "},"⁄":{"x_min":0,"x_max":0,"ha":708,"o":"m 737 902 l 112 0 l -5 0 l 641 940 l 737 902 "},"2":{"x_min":0,"x_max":0,"ha":695,"o":"m 605 0 l 120 0 l 106 61 q 133 93 106 63 q 443 590 443 443 q 405 691 443 655 q 316 727 368 727 q 156 647 227 727 l 106 744 q 336 820 197 820 q 502 765 433 820 q 572 608 572 709 q 524 429 572 525 q 418 265 476 333 q 313 152 361 198 l 265 108 l 619 108 l 605 0 "},"ü":{"x_min":0,"x_max":0,"ha":799,"o":"m 565 102 q 450 16 525 51 q 306 -18 376 -18 q 178 24 231 -18 q 125 145 125 66 l 125 555 l 106 683 l 241 698 l 241 284 q 261 134 241 179 q 343 90 281 90 q 436 106 393 90 q 504 142 480 122 q 541 177 529 162 l 555 194 l 555 555 l 537 683 l 672 698 l 672 156 q 687 80 672 119 q 719 20 702 41 l 734 0 l 605 -18 q 565 102 565 38 m 340 876 q 319 822 340 844 q 270 800 298 800 q 222 822 243 800 q 201 876 201 844 q 222 929 201 907 q 270 952 243 952 q 319 929 298 952 q 340 876 340 907 m 595 876 q 575 822 595 844 q 526 800 554 800 q 477 822 498 800 q 456 876 456 844 q 477 929 456 907 q 526 952 498 952 q 575 929 554 952 q 595 876 595 907 "},"¯":{"x_min":0,"x_max":0,"ha":465,"o":"m 69 923 l 412 923 l 384 820 l 69 820 l 69 923 "},"Z":{"x_min":0,"x_max":0,"ha":786,"o":"m 50 0 l 44 34 l 479 723 l 540 807 l 75 807 l 105 913 l 725 913 l 730 879 l 297 191 l 233 105 l 745 105 l 745 0 l 50 0 "},"u":{"x_min":0,"x_max":0,"ha":799,"o":"m 565 102 q 450 16 525 51 q 306 -18 376 -18 q 178 24 231 -18 q 125 145 125 66 l 125 555 l 106 683 l 241 698 l 241 284 q 261 134 241 179 q 343 90 281 90 q 436 106 393 90 q 504 142 480 122 q 541 177 529 162 l 555 194 l 555 555 l 537 683 l 672 698 l 672 156 q 687 80 672 119 q 719 20 702 41 l 734 0 l 605 -18 q 565 102 565 38 "},"˜":{"x_min":0,"x_max":0,"ha":528,"o":"m 437 933 l 497 897 q 464 844 476 859 q 424 813 452 829 q 354 798 395 798 q 255 823 308 798 q 180 848 202 848 q 111 802 141 848 l 51 838 q 84 891 72 876 q 124 922 95 907 q 194 937 152 937 q 288 911 234 937 q 366 884 341 884 q 437 933 415 884 "},"Ó":{"x_min":0,"x_max":0,"ha":945,"o":"m 480 930 q 778 802 675 930 q 882 465 882 673 q 761 122 882 262 q 462 -18 640 -18 q 170 115 277 -18 q 63 448 63 248 q 183 791 63 651 q 480 930 302 930 m 276 723 q 200 456 200 615 q 276 190 200 298 q 473 81 352 81 q 670 190 594 81 q 745 456 745 298 q 670 723 745 615 q 473 832 594 832 q 276 723 352 832 m 540 1215 l 693 1215 l 444 988 l 368 1016 l 540 1215 "},"k":{"x_min":0,"x_max":0,"ha":710,"o":"m 707 0 l 548 0 l 248 362 l 248 104 l 262 0 l 131 0 l 131 905 l 113 1033 l 248 1048 l 248 377 l 472 615 l 509 683 l 686 683 l 377 383 l 707 0 "},"ˇ":{"x_min":0,"x_max":0,"ha":558,"o":"m 323 779 l 231 779 l 59 977 l 136 1005 l 277 876 l 419 1005 l 495 977 l 323 779 "},"Ù":{"x_min":0,"x_max":0,"ha":1010,"o":"m 745 350 l 745 786 l 727 913 l 862 913 l 862 365 q 759 88 862 194 q 487 -18 657 -18 q 349 5 409 -18 q 254 68 288 29 q 196 146 219 106 q 165 230 173 186 q 154 295 156 275 q 151 329 151 315 l 151 786 l 133 913 l 276 913 l 276 340 q 343 156 276 229 q 512 83 411 83 q 679 160 613 83 q 745 350 745 237 m 279 1215 l 431 1215 l 604 1016 l 527 988 l 279 1215 "},"Ÿ":{"x_min":0,"x_max":0,"ha":707,"o":"m 420 402 l 420 104 l 434 0 l 295 0 l 295 402 l 80 815 l 8 913 l 169 913 l 350 570 l 369 515 l 395 573 l 577 913 l 702 913 l 420 402 m 311 1086 q 290 1032 311 1054 q 241 1009 269 1009 q 193 1032 213 1009 q 172 1086 172 1054 q 193 1139 172 1116 q 241 1162 213 1162 q 290 1139 269 1162 q 311 1086 311 1116 m 566 1086 q 545 1032 566 1054 q 497 1009 525 1009 q 448 1032 469 1009 q 427 1086 427 1054 q 448 1139 427 1116 q 497 1162 469 1162 q 545 1139 525 1162 q 566 1086 566 1116 "},"€":{"x_min":0,"x_max":0,"ha":835,"o":"m 26 604 l 115 604 q 270 844 156 758 q 530 930 383 930 q 762 872 672 930 l 729 769 q 519 834 644 834 q 344 772 422 834 q 230 604 266 709 l 670 604 l 638 508 l 209 508 q 206 451 206 477 q 209 393 206 429 l 601 393 l 569 297 l 227 297 q 331 138 258 194 q 515 83 404 83 q 743 161 648 83 l 743 51 q 490 -18 633 -18 q 247 63 351 -18 q 109 297 144 145 l 26 297 l 26 393 l 95 393 q 94 437 94 406 q 97 508 94 461 l 26 508 l 26 604 "},"¢":{"x_min":0,"x_max":0,"ha":656,"o":"m 415 812 l 415 702 q 618 607 543 697 l 561 526 q 497 580 545 551 q 415 611 448 609 l 415 93 q 509 120 463 97 q 577 166 555 144 l 598 187 l 618 77 q 593 56 609 69 q 525 20 577 44 q 415 -12 472 -4 l 415 -130 l 343 -130 l 343 -18 q 143 88 216 -13 q 70 329 70 191 q 142 576 70 470 q 343 700 213 682 l 343 812 l 415 812 m 195 351 q 234 193 195 263 q 343 100 272 122 l 343 607 q 234 514 273 587 q 195 351 195 441 "},"Ω":{"x_min":0,"x_max":0,"ha":511},"ß":{"x_min":0,"x_max":0,"ha":797,"o":"m 356 111 l 361 141 q 516 76 440 76 q 638 175 638 76 q 600 254 638 212 q 513 330 561 297 q 427 411 466 363 q 388 508 388 459 q 415 603 388 556 q 472 682 441 650 q 530 761 504 713 q 556 858 556 809 q 441 945 556 945 q 308 897 359 945 q 256 782 256 848 l 256 143 l 270 0 l 140 0 l 140 587 l 55 587 l 55 682 l 140 682 l 140 770 q 169 894 140 838 q 243 982 198 950 q 336 1030 288 1013 q 427 1047 384 1047 q 541 1030 487 1047 q 635 971 594 1013 q 676 866 676 929 q 651 770 676 819 q 596 687 626 720 q 541 616 566 654 q 516 550 516 577 q 554 471 516 515 q 638 391 593 427 q 722 303 684 354 q 761 206 761 252 q 693 43 761 104 q 515 -18 626 -18 q 429 -4 470 -18 q 368 22 387 8 l 348 34 l 356 111 "},"é":{"x_min":0,"x_max":0,"ha":683,"o":"m 377 704 q 613 377 602 704 l 581 341 l 194 341 q 246 163 197 237 q 390 88 295 88 q 497 112 443 88 q 580 159 551 136 l 608 183 l 627 77 q 607 61 620 72 q 559 30 594 51 q 470 -4 523 9 q 356 -18 416 -18 q 149 86 227 -18 q 70 329 70 191 q 149 596 70 488 q 377 704 227 704 m 361 613 q 201 430 237 613 l 487 430 q 454 557 483 501 q 361 613 425 613 m 436 1005 l 588 1005 l 340 779 l 263 807 l 436 1005 "},"s":{"x_min":0,"x_max":0,"ha":593,"o":"m 75 62 l 87 175 q 103 159 93 169 q 140 129 113 150 q 205 95 166 109 q 284 81 244 81 q 406 175 406 81 q 372 235 406 208 q 287 284 337 262 q 187 331 237 305 q 102 400 137 356 q 68 500 68 443 q 134 647 68 591 q 300 704 200 704 q 500 657 420 704 l 466 545 q 288 615 398 615 q 215 591 245 615 q 186 533 186 568 q 220 463 186 493 q 305 412 255 433 q 405 367 355 391 q 490 299 455 343 q 525 193 525 255 q 459 40 525 100 q 283 -18 393 -18 q 168 2 220 -18 q 95 41 116 22 l 75 62 "},"B":{"x_min":0,"x_max":0,"ha":776,"o":"m 280 816 l 280 545 l 380 545 q 428 543 404 545 q 466 538 452 541 l 481 536 q 534 676 534 607 q 487 784 534 750 q 340 819 440 819 q 280 816 322 819 m 137 913 l 356 920 q 572 867 490 925 q 654 704 654 809 q 550 513 654 618 q 666 427 626 479 q 707 283 707 375 q 625 79 707 159 q 365 0 543 0 l 155 0 l 155 786 l 137 913 m 280 443 l 280 100 l 381 100 q 529 148 484 100 q 575 270 575 197 q 522 402 575 362 q 359 443 469 443 l 280 443 "},"…":{"x_min":0,"x_max":0,"ha":921,"o":"m 234 109 q 255 56 255 87 q 234 4 255 26 q 181 -18 212 -18 q 128 3 150 -18 q 106 56 106 25 q 129 109 106 87 q 181 130 151 130 q 234 109 212 130 m 518 109 q 540 56 540 87 q 518 4 540 26 q 466 -18 497 -18 q 413 3 436 -18 q 391 56 391 25 q 413 109 391 87 q 466 130 436 130 q 518 109 497 130 m 796 109 q 818 56 818 87 q 796 4 818 26 q 744 -18 775 -18 q 691 3 713 -18 q 669 56 669 25 q 691 109 669 87 q 744 130 713 130 q 796 109 775 130 "},"?":{"x_min":0,"x_max":0,"ha":596,"o":"m 266 238 l 155 275 q 150 322 150 305 q 176 435 150 381 q 240 529 202 488 q 315 610 277 570 q 379 700 352 650 q 405 802 405 750 q 367 897 405 859 q 258 936 329 936 q 169 919 219 936 q 119 898 119 902 l 72 1011 q 258 1051 155 1051 q 461 986 383 1051 q 540 819 540 922 q 518 707 540 761 q 466 615 497 654 q 397 536 434 576 q 328 463 359 495 q 275 388 297 430 q 254 306 254 347 l 266 238 m 316 69 q 290 7 316 33 q 227 -18 263 -18 q 165 7 191 -18 q 138 69 138 33 q 165 129 138 104 q 227 154 191 154 q 290 129 263 154 q 316 69 316 104 "},"H":{"x_min":0,"x_max":0,"ha":1049,"o":"m 894 913 l 894 104 l 908 0 l 769 0 l 769 416 l 280 416 l 280 104 l 294 0 l 155 0 l 155 786 l 137 913 l 280 913 l 280 527 l 769 527 l 769 786 l 751 913 l 894 913 "},"î":{"x_min":0,"x_max":0,"ha":381,"o":"m 248 698 l 248 104 l 262 0 l 131 0 l 131 555 l 113 683 l 248 698 m 147 1005 l 233 1005 l 405 807 l 331 779 l 188 908 l 48 779 l -25 807 l 147 1005 "},"c":{"x_min":0,"x_max":0,"ha":667,"o":"m 615 607 l 541 513 q 386 607 476 607 q 243 531 295 607 q 190 351 190 455 q 240 166 190 244 q 387 88 291 88 q 492 112 440 88 q 569 159 544 136 l 595 183 l 615 77 q 597 61 609 72 q 551 30 584 51 q 466 -4 518 9 q 354 -18 413 -18 q 146 86 225 -18 q 68 329 68 191 q 152 595 68 486 q 388 704 237 704 q 615 607 534 704 "},"¶":{"x_min":0,"x_max":0,"ha":864,"o":"m 80 506 q 200 795 80 676 q 488 913 319 913 l 572 913 l 572 -338 l 488 -338 l 488 100 q 200 219 319 100 q 80 506 80 338 m 745 913 l 745 -338 l 662 -338 l 662 913 l 745 913 "},"≠":{"x_min":0,"x_max":0,"ha":667},"•":{"x_min":0,"x_max":0,"ha":589,"o":"m 293 526 q 423 472 369 526 q 477 343 477 419 q 423 211 477 265 q 293 156 369 156 q 161 211 215 156 q 106 343 106 265 q 161 472 106 419 q 293 526 215 526 "},"¥":{"x_min":0,"x_max":0,"ha":722,"o":"m 137 511 l 259 511 l 101 815 l 15 913 l 190 913 l 393 529 l 598 913 l 719 913 l 493 511 l 645 511 l 618 416 l 441 416 l 441 281 l 632 281 l 604 187 l 441 187 l 441 104 l 455 0 l 316 0 l 316 187 l 137 187 l 137 281 l 316 281 l 316 416 l 137 416 l 137 511 "},"(":{"x_min":0,"x_max":0,"ha":458,"o":"m 237 572 q 209 329 209 458 q 237 78 209 200 q 303 -120 265 -43 q 373 -243 341 -197 q 419 -297 405 -290 l 337 -326 q 163 -68 236 -269 q 91 329 91 131 q 163 704 91 523 q 337 943 234 884 l 419 913 q 372 866 404 907 q 303 757 341 826 q 237 572 265 687 "},"U":{"x_min":0,"x_max":0,"ha":1010,"o":"m 745 350 l 745 786 l 727 913 l 862 913 l 862 365 q 759 88 862 194 q 487 -18 657 -18 q 349 5 409 -18 q 254 68 288 29 q 196 146 219 106 q 165 230 173 186 q 154 295 156 275 q 151 329 151 315 l 151 786 l 133 913 l 276 913 l 276 340 q 343 156 276 229 q 512 83 411 83 q 679 160 613 83 q 745 350 745 237 "},"◊":{"x_min":0,"x_max":0,"ha":590,"o":"m 577 440 l 295 158 l 13 440 l 295 722 l 577 440 "},"Ñ":{"x_min":0,"x_max":0,"ha":1039,"o":"m 898 913 l 898 104 l 907 0 l 841 0 l 320 583 l 261 673 l 261 104 l 275 0 l 147 0 l 147 786 l 129 913 l 213 913 l 723 336 l 784 245 l 784 786 l 766 913 l 898 913 m 679 1143 l 738 1107 q 706 1054 718 1069 q 666 1023 694 1038 q 595 1008 637 1008 q 497 1033 550 1008 q 422 1058 444 1058 q 352 1012 383 1058 l 293 1048 q 325 1101 313 1086 q 366 1132 337 1116 q 436 1147 394 1147 q 529 1120 476 1147 q 608 1094 583 1094 q 679 1143 657 1094 "},"F":{"x_min":0,"x_max":0,"ha":668,"o":"m 155 786 l 137 913 l 612 913 l 612 811 l 280 811 l 280 519 l 570 519 l 543 416 l 280 416 l 280 104 l 294 0 l 155 0 l 155 786 "},":":{"x_min":0,"x_max":0,"ha":358,"o":"m 268 452 q 243 391 268 416 q 184 365 219 365 q 125 391 150 365 q 101 452 101 416 q 125 512 101 487 q 184 537 150 537 q 243 512 219 537 q 268 452 268 487 m 268 69 q 243 7 268 33 q 184 -18 219 -18 q 125 7 150 -18 q 101 69 101 33 q 125 129 101 104 q 184 154 150 154 q 243 129 219 154 q 268 69 268 104 "},"Û":{"x_min":0,"x_max":0,"ha":1010,"o":"m 745 350 l 745 786 l 727 913 l 862 913 l 862 365 q 759 88 862 194 q 487 -18 657 -18 q 349 5 409 -18 q 254 68 288 29 q 196 146 219 106 q 165 230 173 186 q 154 295 156 275 q 151 329 151 315 l 151 786 l 133 913 l 276 913 l 276 340 q 343 156 276 229 q 512 83 411 83 q 679 160 613 83 q 745 350 745 237 m 455 1215 l 541 1215 l 713 1016 l 640 988 l 497 1118 l 356 988 l 283 1016 l 455 1215 "},"*":{"x_min":0,"x_max":0,"ha":558,"o":"m 5 762 l 47 848 l 208 843 l 105 1020 l 194 1027 l 276 883 l 376 1059 l 426 984 l 343 843 l 547 848 l 505 762 l 344 768 l 447 590 l 358 583 l 276 726 l 176 551 l 126 626 l 208 768 l 5 762 "},"†":{"x_min":0,"x_max":0,"ha":676,"o":"m 366 -340 l 251 -340 l 251 588 l 72 588 l 72 683 l 251 683 l 251 902 l 366 918 l 366 683 l 593 683 l 551 588 l 366 588 l 366 -340 "},"°":{"x_min":0,"x_max":0,"ha":554,"o":"m 434 963 q 505 800 505 894 q 434 636 505 705 q 269 566 363 566 q 106 636 176 566 q 36 800 36 705 q 106 963 36 894 q 269 1032 176 1032 q 434 963 363 1032 m 413 802 q 370 900 413 858 q 270 941 326 941 q 170 900 212 941 q 127 802 127 859 q 169 699 127 745 q 270 652 211 652 q 375 698 336 652 q 413 802 413 744 "},"V":{"x_min":0,"x_max":0,"ha":811,"o":"m 809 913 l 450 -18 l 362 0 l 86 761 l 5 913 l 172 913 l 390 302 l 419 186 l 455 302 l 686 913 l 809 913 "},"å":{"x_min":0,"x_max":0,"ha":703,"o":"m 156 505 l 94 595 q 113 613 100 602 q 159 648 126 625 q 248 687 193 672 q 366 702 304 702 q 516 659 456 702 q 575 525 575 616 l 575 156 q 590 80 575 119 q 622 20 605 41 l 637 0 l 508 -18 q 468 95 469 34 q 374 16 438 51 q 247 -18 309 -18 q 120 30 173 -18 q 68 154 68 79 q 177 340 68 269 q 458 411 286 411 l 458 461 q 354 609 458 609 q 270 593 309 609 q 206 557 230 577 q 169 522 183 537 l 156 505 m 298 81 q 386 110 340 81 q 458 168 431 138 l 458 322 q 193 175 193 312 q 220 109 193 137 q 298 81 247 81 m 436 975 q 475 888 475 938 q 436 802 475 838 q 348 766 398 766 q 261 802 298 766 q 225 888 225 838 q 261 975 225 938 q 348 1011 298 1011 q 436 975 398 1011 m 423 890 q 401 941 423 919 q 350 963 379 963 q 297 942 319 963 q 276 890 276 920 q 297 836 276 861 q 350 811 319 811 q 403 835 383 811 q 423 890 423 859 "},"0":{"x_min":0,"x_max":0,"ha":695,"o":"m 355 816 q 637 400 637 816 q 561 97 637 213 q 325 -18 486 -18 q 131 85 205 -18 q 58 401 58 188 q 132 701 58 586 q 355 816 206 816 m 347 725 q 186 416 186 725 q 193 278 186 337 q 216 170 200 219 q 264 96 233 122 q 340 70 295 70 q 466 158 419 70 q 512 394 512 245 q 347 725 512 725 "},"”":{"x_min":0,"x_max":0,"ha":618,"o":"m 133 583 l 83 632 q 136 699 112 659 q 161 770 161 738 q 150 811 161 797 q 111 836 140 825 l 111 848 q 134 911 111 886 q 194 936 156 936 q 253 910 229 936 q 277 836 277 884 q 240 702 277 776 q 133 583 202 629 m 376 583 l 326 632 q 379 699 355 659 q 404 770 404 738 q 393 811 404 797 q 354 836 383 825 l 354 848 q 377 911 354 886 q 437 936 400 936 q 496 910 472 936 q 520 836 520 884 q 483 702 520 776 q 376 583 445 629 "},"¾":{"x_min":0,"x_max":0,"ha":939,"o":"m 787 793 l 329 130 l 241 130 l 716 820 l 787 793 m 477 98 l 719 462 l 809 434 l 809 125 l 907 125 l 888 50 l 809 50 l 809 -11 l 818 -80 l 707 -80 l 707 50 l 487 50 l 477 98 m 708 125 l 708 288 l 711 338 l 688 293 l 587 143 l 568 123 l 607 125 l 708 125 m 395 813 q 367 738 395 773 q 291 688 338 702 q 379 645 343 680 q 416 547 416 611 q 347 427 416 465 q 176 388 277 388 q 83 397 170 388 l 62 477 q 150 466 118 466 q 304 547 304 466 q 261 616 304 591 q 169 640 218 640 l 180 695 q 286 801 286 740 q 225 857 286 857 q 165 845 194 857 q 125 822 137 833 l 111 811 l 73 882 q 229 933 137 933 q 346 901 297 933 q 395 813 395 869 "},"@":{"x_min":0,"x_max":0,"ha":1253,"o":"m 844 577 l 844 236 q 872 68 844 91 q 1011 166 955 69 q 1068 391 1068 263 q 959 704 1068 583 q 652 826 850 826 q 415 749 523 826 q 248 554 306 672 q 190 308 190 436 q 243 89 190 194 q 400 -87 295 -15 q 637 -165 504 -159 l 566 -262 q 213 -68 344 -234 q 83 305 83 98 q 152 600 83 462 q 358 825 220 737 q 672 913 495 913 q 1027 775 882 913 q 1173 427 1173 636 q 1079 111 1173 244 q 820 -20 986 -20 q 776 -18 807 -20 q 737 94 743 18 l 713 68 q 647 14 691 41 q 555 -12 604 -12 q 402 68 466 -12 q 337 270 337 150 q 456 581 337 461 q 743 702 576 702 q 862 682 795 702 l 844 577 m 726 162 l 725 608 q 692 604 713 608 q 627 582 670 601 q 550 531 584 563 q 488 434 515 500 q 461 281 461 369 q 499 154 461 208 q 593 100 537 100 q 726 162 665 100 "},"ö":{"x_min":0,"x_max":0,"ha":768,"o":"m 68 330 q 160 599 68 494 q 408 704 252 704 q 619 616 538 704 q 700 356 700 527 q 607 90 700 200 q 361 -18 515 -18 q 221 17 280 -18 q 134 97 162 52 q 89 199 105 141 q 70 284 73 256 q 68 330 68 312 m 247 533 q 195 343 195 455 q 247 152 195 230 q 383 75 298 75 q 520 152 468 75 q 572 343 572 230 q 520 533 572 455 q 383 611 468 611 q 247 533 298 611 m 325 876 q 304 822 325 844 q 255 800 283 800 q 206 822 227 800 q 186 876 186 844 q 206 929 186 907 q 255 952 227 952 q 304 929 283 952 q 325 876 325 907 m 580 876 q 559 822 580 844 q 511 800 538 800 q 462 822 483 800 q 441 876 441 844 q 462 929 441 907 q 511 952 483 952 q 559 929 538 952 q 580 876 580 907 "},"i":{"x_min":0,"x_max":0,"ha":381,"o":"m 132 838 q 111 890 111 861 q 131 941 111 919 q 183 962 152 962 q 232 941 211 962 q 254 890 254 919 q 232 838 254 861 q 183 815 211 815 q 132 838 154 815 m 248 698 l 248 104 l 262 0 l 131 0 l 131 555 l 113 683 l 248 698 "},"≤":{"x_min":0,"x_max":0,"ha":1683,"o":"m 62 483 l 794 725 l 794 244 l 62 483 m 1493 430 q 1472 483 1472 452 q 1493 535 1472 513 q 1545 556 1515 556 q 1598 535 1576 556 q 1620 483 1620 513 q 1599 430 1620 452 q 1545 408 1577 408 q 1493 430 1515 408 m 1209 430 q 1187 483 1187 452 q 1209 535 1187 513 q 1261 556 1230 556 q 1313 535 1291 556 q 1336 483 1336 513 q 1313 430 1336 452 q 1261 408 1291 408 q 1209 430 1230 408 m 931 430 q 909 483 909 452 q 931 535 909 513 q 983 556 952 556 q 1036 535 1013 556 q 1058 483 1058 513 q 1036 430 1058 452 q 983 408 1013 408 q 931 430 952 408 "},"Õ":{"x_min":0,"x_max":0,"ha":945,"o":"m 480 930 q 778 802 675 930 q 882 465 882 673 q 761 122 882 262 q 462 -18 640 -18 q 170 115 277 -18 q 63 448 63 248 q 183 791 63 651 q 480 930 302 930 m 276 723 q 200 456 200 615 q 276 190 200 298 q 473 81 352 81 q 670 190 594 81 q 745 456 745 298 q 670 723 745 615 q 473 832 594 832 q 276 723 352 832 m 634 1163 l 694 1127 q 661 1075 673 1090 q 621 1044 650 1059 q 551 1029 593 1029 q 452 1054 505 1029 q 377 1079 400 1079 q 308 1033 338 1079 l 248 1069 q 281 1122 269 1107 q 321 1152 293 1137 q 391 1168 350 1168 q 485 1141 431 1168 q 563 1115 538 1115 q 634 1163 612 1115 "},"þ":{"x_min":0,"x_max":0,"ha":768,"o":"m 131 -333 l 131 907 l 113 1034 l 248 1050 l 248 611 q 445 701 344 701 q 623 609 551 701 q 695 356 695 516 q 600 92 695 202 q 356 -18 504 -18 q 248 -9 326 -18 l 248 -229 l 262 -333 l 131 -333 m 401 607 q 248 512 322 607 l 248 81 l 252 80 q 263 79 255 80 q 281 78 272 79 q 304 76 291 77 q 329 74 316 75 q 354 72 341 73 q 379 72 368 72 q 511 153 455 72 q 566 344 566 234 q 518 534 566 461 q 401 607 470 607 "},"]":{"x_min":0,"x_max":0,"ha":357,"o":"m 25 919 l 25 1005 l 248 1005 l 248 -95 l 25 -95 l 25 -8 l 137 -8 l 137 919 l 25 919 "},"m":{"x_min":0,"x_max":0,"ha":1228,"o":"m 693 0 l 562 0 l 562 400 q 542 550 562 505 q 461 594 522 594 q 343 568 395 594 q 269 516 290 543 l 248 491 l 248 104 l 262 0 l 131 0 l 131 555 l 113 683 l 248 698 l 248 594 q 361 672 293 643 q 497 702 429 702 q 602 674 555 702 q 669 594 650 645 q 782 672 713 643 q 918 702 850 702 q 1046 660 993 702 q 1100 538 1100 618 l 1100 101 l 1113 0 l 983 0 l 983 400 q 963 550 983 505 q 882 594 943 594 q 679 504 761 594 l 679 101 l 693 0 "},"ﬃ":{"x_min":0,"x_max":0,"ha":1292,"o":"m 1159 700 l 1159 104 l 1173 0 l 1043 0 l 1043 556 l 1037 588 l 705 588 l 705 143 l 719 0 l 588 0 l 588 588 l 256 588 l 256 143 l 270 0 l 140 0 l 140 588 l 55 588 l 55 683 l 140 683 l 140 770 q 169 894 140 838 q 243 982 198 950 q 336 1030 288 1013 q 427 1047 384 1047 q 676 968 577 1047 q 876 1047 765 1047 q 1018 1025 952 1047 q 1109 980 1083 1002 l 1136 958 l 1088 848 q 1060 875 1079 859 q 989 918 1041 891 q 890 945 937 945 q 757 897 808 945 q 705 782 705 848 l 705 683 l 1025 683 l 1159 700 m 588 770 q 609 876 588 830 q 441 945 519 945 q 308 897 359 945 q 256 782 256 848 l 256 683 l 588 683 l 588 770 "},"8":{"x_min":0,"x_max":0,"ha":695,"o":"m 327 -18 q 211 0 266 -18 q 113 70 155 19 q 70 197 70 122 q 122 348 70 284 q 266 476 173 412 q 147 591 188 537 q 106 707 106 644 q 176 866 106 804 q 363 929 245 929 q 532 876 469 929 q 595 744 595 823 q 552 611 595 669 q 431 500 508 554 q 506 441 477 465 q 567 382 534 416 q 615 316 600 348 q 630 250 630 283 q 544 57 630 133 q 327 -18 458 -18 m 191 238 q 231 122 191 163 q 340 81 272 81 q 457 121 405 81 q 509 215 509 161 q 480 289 509 250 q 420 355 451 329 q 329 429 390 381 q 227 339 262 383 q 191 238 191 295 m 476 707 q 445 802 476 762 q 348 841 415 841 q 256 811 291 841 q 222 729 222 780 q 259 644 222 687 q 366 548 297 601 q 476 707 476 629 "},"ž":{"x_min":0,"x_max":0,"ha":624,"o":"m 38 0 l 34 26 l 356 531 l 400 588 l 52 588 l 80 683 l 570 683 l 575 657 l 255 151 l 212 94 l 581 94 l 581 0 l 38 0 m 370 779 l 279 779 l 106 977 l 183 1005 l 325 876 l 466 1005 l 543 977 l 370 779 "},"R":{"x_min":0,"x_max":0,"ha":817,"o":"m 802 0 l 641 0 l 397 343 q 280 341 381 341 l 280 104 l 294 0 l 155 0 l 155 786 l 137 913 l 395 913 q 608 843 520 913 q 695 638 695 772 q 647 486 695 556 q 518 377 600 416 l 802 0 m 280 444 l 370 444 q 506 502 448 444 q 563 638 563 559 q 508 766 563 720 q 370 811 452 811 l 280 811 l 280 444 "},"á":{"x_min":0,"x_max":0,"ha":703,"o":"m 156 505 l 94 595 q 113 613 100 602 q 159 648 126 625 q 248 687 193 672 q 366 702 304 702 q 516 659 456 702 q 575 525 575 616 l 575 156 q 590 80 575 119 q 622 20 605 41 l 637 0 l 508 -18 q 468 95 469 34 q 374 16 438 51 q 247 -18 309 -18 q 120 30 173 -18 q 68 154 68 79 q 177 340 68 269 q 458 411 286 411 l 458 461 q 354 609 458 609 q 270 593 309 609 q 206 557 230 577 q 169 522 183 537 l 156 505 m 298 81 q 386 110 340 81 q 458 168 431 138 l 458 322 q 193 175 193 312 q 220 109 193 137 q 298 81 247 81 m 418 1005 l 570 1005 l 322 779 l 245 807 l 418 1005 "},"×":{"x_min":0,"x_max":0,"ha":596,"o":"m 475 105 l 301 277 l 131 108 l 59 180 l 229 351 l 52 526 l 140 576 l 298 419 l 473 595 l 526 502 l 370 347 l 543 173 l 475 105 "},"o":{"x_min":0,"x_max":0,"ha":768,"o":"m 68 330 q 160 599 68 494 q 408 704 252 704 q 619 616 538 704 q 700 356 700 527 q 607 90 700 200 q 361 -18 515 -18 q 221 17 280 -18 q 134 97 162 52 q 89 199 105 141 q 70 284 73 256 q 68 330 68 312 m 247 533 q 195 343 195 455 q 247 152 195 230 q 383 75 298 75 q 520 152 468 75 q 572 343 572 230 q 520 533 572 455 q 383 611 468 611 q 247 533 298 611 "},"5":{"x_min":0,"x_max":0,"ha":695,"o":"m 591 798 l 563 690 l 273 690 l 266 508 q 500 424 398 508 q 601 205 601 340 q 564 49 601 118 q 465 -60 527 -19 q 327 -121 402 -101 q 168 -141 251 -141 q 130 -140 143 -141 l 101 -45 q 165 -48 120 -48 q 311 -24 243 -48 q 428 54 380 0 q 476 184 476 108 q 402 350 476 281 q 209 418 327 418 l 159 415 l 176 798 l 591 798 "},"õ":{"x_min":0,"x_max":0,"ha":768,"o":"m 68 330 q 160 599 68 494 q 408 704 252 704 q 619 616 538 704 q 700 356 700 527 q 607 90 700 200 q 361 -18 515 -18 q 221 17 280 -18 q 134 97 162 52 q 89 199 105 141 q 70 284 73 256 q 68 330 68 312 m 247 533 q 195 343 195 455 q 247 152 195 230 q 383 75 298 75 q 520 152 468 75 q 572 343 572 230 q 520 533 572 455 q 383 611 468 611 q 247 533 298 611 m 547 933 l 607 897 q 574 844 586 859 q 534 813 562 829 q 463 798 505 798 q 365 823 418 798 q 290 848 312 848 q 220 802 251 848 l 161 838 q 193 891 181 876 q 234 922 205 907 q 304 937 262 937 q 397 911 344 937 q 476 884 451 884 q 547 933 525 884 "},"7":{"x_min":0,"x_max":0,"ha":695,"o":"m 255 -154 l 143 -133 l 502 690 l 95 690 l 54 798 l 640 798 l 661 766 l 255 -154 "},"K":{"x_min":0,"x_max":0,"ha":803,"o":"m 794 0 l 629 0 l 280 462 l 280 104 l 294 0 l 155 0 l 155 786 l 137 913 l 280 913 l 280 479 l 562 823 l 602 913 l 782 913 l 420 480 l 794 0 "},",":{"x_min":0,"x_max":0,"ha":375,"o":"m 133 -195 l 83 -147 q 136 -79 112 -119 q 161 -8 161 -40 q 150 31 161 18 q 111 56 140 45 l 111 69 q 134 131 111 106 q 194 156 156 156 q 253 131 229 156 q 277 56 277 105 q 240 -76 277 -2 q 133 -195 202 -150 "},"d":{"x_min":0,"x_max":0,"ha":758,"o":"m 632 1048 l 632 156 q 647 80 632 119 q 679 20 663 41 l 694 0 l 565 -18 q 525 83 531 27 q 318 -18 425 -18 q 140 74 212 -18 q 68 326 68 166 q 163 591 68 480 q 406 701 259 701 q 515 693 437 701 l 515 905 l 497 1033 l 632 1048 m 362 76 q 515 169 443 76 l 515 601 l 511 602 q 500 603 508 602 q 481 604 491 604 q 459 606 472 605 q 434 609 447 608 q 409 610 422 609 q 384 611 395 611 q 252 529 308 611 q 197 338 197 448 q 245 149 197 222 q 362 76 293 76 "},"¨":{"x_min":0,"x_max":0,"ha":533,"o":"m 211 876 q 190 822 211 844 q 141 800 169 800 q 93 822 113 800 q 72 876 72 844 q 93 929 72 907 q 141 952 113 952 q 190 929 169 952 q 211 876 211 907 m 466 876 q 445 822 466 844 q 397 800 425 800 q 348 822 369 800 q 327 876 327 844 q 348 929 327 907 q 397 952 369 952 q 445 929 425 952 q 466 876 466 907 "},"Ô":{"x_min":0,"x_max":0,"ha":945,"o":"m 480 930 q 778 802 675 930 q 882 465 882 673 q 761 122 882 262 q 462 -18 640 -18 q 170 115 277 -18 q 63 448 63 248 q 183 791 63 651 q 480 930 302 930 m 276 723 q 200 456 200 615 q 276 190 200 298 q 473 81 352 81 q 670 190 594 81 q 745 456 745 298 q 670 723 745 615 q 473 832 594 832 q 276 723 352 832 m 427 1215 l 513 1215 l 686 1016 l 612 988 l 469 1118 l 329 988 l 255 1016 l 427 1215 "},"E":{"x_min":0,"x_max":0,"ha":695,"o":"m 155 0 l 155 786 l 137 913 l 612 913 l 612 811 l 280 811 l 280 519 l 570 519 l 543 416 l 280 416 l 280 102 l 627 102 l 600 0 l 155 0 "},"Y":{"x_min":0,"x_max":0,"ha":707,"o":"m 420 402 l 420 104 l 434 0 l 295 0 l 295 402 l 80 815 l 8 913 l 169 913 l 350 570 l 369 515 l 395 573 l 577 913 l 702 913 l 420 402 "},"\"":{"x_min":0,"x_max":0,"ha":544,"o":"m 123 754 l 98 909 l 223 932 l 222 593 l 120 591 l 123 754 m 345 754 l 320 909 l 445 932 l 444 593 l 343 591 l 345 754 "},"‹":{"x_min":0,"x_max":0,"ha":517,"o":"m 447 572 l 206 341 l 447 113 l 393 25 l 55 343 l 393 661 l 447 572 "},"˙":{"x_min":0,"x_max":0,"ha":258,"o":"m 182 921 q 204 869 204 900 q 182 816 204 838 q 130 794 161 794 q 77 816 100 794 q 55 869 55 838 q 77 921 55 900 q 130 943 100 943 q 182 921 161 943 "},"ê":{"x_min":0,"x_max":0,"ha":683,"o":"m 377 704 q 613 377 602 704 l 581 341 l 194 341 q 246 163 197 237 q 390 88 295 88 q 497 112 443 88 q 580 159 551 136 l 608 183 l 627 77 q 607 61 620 72 q 559 30 594 51 q 470 -4 523 9 q 356 -18 416 -18 q 149 86 227 -18 q 70 329 70 191 q 149 596 70 488 q 377 704 227 704 m 361 613 q 201 430 237 613 l 487 430 q 454 557 483 501 q 361 613 425 613 m 323 1005 l 409 1005 l 581 807 l 508 779 l 365 908 l 225 779 l 151 807 l 323 1005 "},"Ï":{"x_min":0,"x_max":0,"ha":433,"o":"m 280 913 l 280 104 l 294 0 l 155 0 l 155 786 l 137 913 l 280 913 m 162 1086 q 141 1032 162 1054 q 93 1009 120 1009 q 44 1032 65 1009 q 23 1086 23 1054 q 44 1139 23 1116 q 93 1162 65 1162 q 141 1139 120 1162 q 162 1086 162 1116 m 418 1086 q 397 1032 418 1054 q 348 1009 376 1009 q 300 1032 320 1009 q 279 1086 279 1054 q 300 1139 279 1116 q 348 1162 320 1162 q 397 1139 376 1162 q 418 1086 418 1116 "},"„":{"x_min":0,"x_max":0,"ha":618,"o":"m 133 -195 l 83 -147 q 136 -79 112 -119 q 161 -8 161 -40 q 150 31 161 18 q 111 56 140 45 l 111 69 q 134 131 111 106 q 194 156 156 156 q 253 131 229 156 q 277 56 277 105 q 240 -76 277 -2 q 133 -195 202 -150 m 376 -195 l 326 -147 q 379 -79 355 -119 q 404 -8 404 -40 q 393 31 404 18 q 354 56 383 45 l 354 69 q 377 131 354 106 q 437 156 400 156 q 496 131 472 156 q 520 56 520 105 q 483 -76 520 -2 q 376 -195 445 -150 "},"Â":{"x_min":0,"x_max":0,"ha":793,"o":"m -2 0 l 350 913 l 434 932 l 718 152 l 787 0 l 636 0 l 548 238 l 208 238 l 118 0 l -2 0 m 368 662 l 245 344 l 513 344 l 398 663 l 384 718 l 368 662 m 352 1215 l 438 1215 l 611 1016 l 537 988 l 394 1118 l 254 988 l 180 1016 l 352 1215 "},"Í":{"x_min":0,"x_max":0,"ha":433,"o":"m 280 913 l 280 104 l 294 0 l 155 0 l 155 786 l 137 913 l 280 913 m 290 1215 l 443 1215 l 194 988 l 118 1016 l 290 1215 "},"´":{"x_min":0,"x_max":0,"ha":469,"o":"m 266 1005 l 419 1005 l 170 779 l 94 807 l 266 1005 "},"ì":{"x_min":0,"x_max":0,"ha":381,"o":"m 248 698 l 248 104 l 262 0 l 131 0 l 131 555 l 113 683 l 248 698 m -29 1005 l 123 1005 l 295 807 l 219 779 l -29 1005 "},"±":{"x_min":0,"x_max":0,"ha":654,"o":"m 279 194 l 279 397 l 80 397 l 80 500 l 279 500 l 279 707 l 376 680 l 376 500 l 583 500 l 555 397 l 376 397 l 376 194 l 279 194 m 120 95 l 551 95 l 523 0 l 120 0 l 120 95 "},"Ú":{"x_min":0,"x_max":0,"ha":1010,"o":"m 745 350 l 745 786 l 727 913 l 862 913 l 862 365 q 759 88 862 194 q 487 -18 657 -18 q 349 5 409 -18 q 254 68 288 29 q 196 146 219 106 q 165 230 173 186 q 154 295 156 275 q 151 329 151 315 l 151 786 l 133 913 l 276 913 l 276 340 q 343 156 276 229 q 512 83 411 83 q 679 160 613 83 q 745 350 745 237 m 568 1215 l 720 1215 l 472 988 l 395 1016 l 568 1215 "},"|":{"x_min":0,"x_max":0,"ha":315,"o":"m 206 1050 l 206 -352 l 108 -352 l 108 1050 l 206 1050 "},"§":{"x_min":0,"x_max":0,"ha":583,"o":"m 375 950 q 520 -22 520 -19 q 441 -187 520 -126 q 251 -248 362 -248 q 147 -234 191 -248 q 86 -203 104 -220 q 61 -172 68 -186 l 54 -158 l 59 -68 q 240 -150 129 -150 q 93 820 93 800 q 172 986 93 923 q 362 1048 251 1048 q 466 1034 422 1048 q 527 1003 509 1020 q 552 972 545 986 l 559 958 l 554 868 q 375 950 484 950 m 327 -137 q 429 -20 429 -105 q 284 937 429 -5 q 183 820 183 908 q 327 -137 183 815 "},"Ý":{"x_min":0,"x_max":0,"ha":707,"o":"m 420 402 l 420 104 l 434 0 l 295 0 l 295 402 l 80 815 l 8 913 l 169 913 l 350 570 l 369 515 l 395 573 l 577 913 l 702 913 l 420 402 m 438 1215 l 591 1215 l 343 988 l 266 1016 l 438 1215 "},"b":{"x_min":0,"x_max":0,"ha":761,"o":"m 111 1034 l 245 1050 l 245 638 q 415 701 341 701 q 611 612 529 701 q 693 356 693 523 q 597 92 693 202 q 354 -18 501 -18 q 214 13 279 -18 q 129 88 150 44 l 129 907 l 111 1034 m 245 548 l 245 123 q 376 72 294 72 q 508 153 452 72 q 563 344 563 234 q 511 529 563 451 q 383 608 459 608 q 294 581 343 608 q 245 548 245 554 "},"q":{"x_min":0,"x_max":0,"ha":751,"o":"m 643 -333 l 515 -333 l 515 43 q 345 -18 422 -18 q 150 72 231 -18 q 68 329 68 162 q 163 593 68 483 q 406 704 259 704 q 544 691 458 704 l 632 680 l 632 -205 l 643 -333 m 515 125 l 515 600 q 384 613 433 613 q 252 532 308 613 q 197 341 197 451 q 252 150 197 231 q 384 69 308 69 q 515 125 452 69 "},"Ω":{"x_min":0,"x_max":0,"ha":511},"Ö":{"x_min":0,"x_max":0,"ha":945,"o":"m 480 930 q 778 802 675 930 q 882 465 882 673 q 761 122 882 262 q 462 -18 640 -18 q 170 115 277 -18 q 63 448 63 248 q 183 791 63 651 q 480 930 302 930 m 276 723 q 200 456 200 615 q 276 190 200 298 q 473 81 352 81 q 670 190 594 81 q 745 456 745 298 q 670 723 745 615 q 473 832 594 832 q 276 723 352 832 m 412 1086 q 391 1032 412 1054 q 343 1009 370 1009 q 294 1032 315 1009 q 273 1086 273 1054 q 294 1139 273 1116 q 343 1162 315 1162 q 391 1139 370 1162 q 412 1086 412 1116 m 668 1086 q 647 1032 668 1054 q 598 1009 626 1009 q 550 1032 570 1009 q 529 1086 529 1054 q 550 1139 529 1116 q 598 1162 570 1162 q 647 1139 626 1162 q 668 1086 668 1116 "},"ﬂ":{"x_min":0,"x_max":0,"ha":836,"o":"m 55 588 l 55 683 l 140 683 l 140 770 q 169 894 140 838 q 243 982 198 950 q 336 1030 288 1013 q 427 1047 384 1047 q 563 1025 501 1047 l 704 975 l 704 104 l 718 0 l 587 0 l 587 898 q 441 945 520 945 q 308 897 359 945 q 256 782 256 848 l 256 683 l 451 683 l 409 588 l 256 588 l 256 143 l 270 0 l 140 0 l 140 588 l 55 588 "},"z":{"x_min":0,"x_max":0,"ha":624,"o":"m 38 0 l 34 26 l 356 531 l 400 588 l 52 588 l 80 683 l 570 683 l 575 657 l 255 151 l 212 94 l 581 94 l 581 0 l 38 0 "},"™":{"x_min":0,"x_max":0,"ha":1114,"o":"m 37 912 l 37 979 l 466 979 l 466 912 l 300 912 l 300 520 l 308 456 l 201 456 l 201 912 l 37 912 m 783 501 l 590 765 l 590 520 l 598 456 l 505 456 l 505 904 l 495 979 l 556 979 l 787 652 l 994 979 l 1054 979 l 1054 520 l 1062 456 l 955 456 l 955 769 l 783 501 "},"ã":{"x_min":0,"x_max":0,"ha":703,"o":"m 156 505 l 94 595 q 113 613 100 602 q 159 648 126 625 q 248 687 193 672 q 366 702 304 702 q 516 659 456 702 q 575 525 575 616 l 575 156 q 590 80 575 119 q 622 20 605 41 l 637 0 l 508 -18 q 468 95 469 34 q 374 16 438 51 q 247 -18 309 -18 q 120 30 173 -18 q 68 154 68 79 q 177 340 68 269 q 458 411 286 411 l 458 461 q 354 609 458 609 q 270 593 309 609 q 206 557 230 577 q 169 522 183 537 l 156 505 m 298 81 q 386 110 340 81 q 458 168 431 138 l 458 322 q 193 175 193 312 q 220 109 193 137 q 298 81 247 81 m 512 933 l 572 897 q 539 844 551 859 q 499 813 527 829 q 429 798 470 798 q 330 823 383 798 q 255 848 277 848 q 186 802 216 848 l 126 838 q 159 891 147 876 q 199 922 170 907 q 269 937 227 937 q 363 911 309 937 q 441 884 416 884 q 512 933 490 884 "},"æ":{"x_min":0,"x_max":0,"ha":1086,"o":"m 763 704 q 872 677 826 704 q 941 616 918 651 q 979 530 965 580 q 998 448 994 480 q 1001 381 1001 416 l 968 344 l 584 331 q 635 159 587 229 q 776 88 683 88 q 883 113 827 88 q 968 161 938 137 l 997 186 l 1016 79 q 984 52 1005 68 q 891 9 962 36 q 743 -18 820 -18 q 506 119 584 -18 q 479 85 497 104 q 429 40 461 66 q 352 -1 398 15 q 258 -18 306 -18 q 117 34 166 -18 q 68 161 68 87 q 172 338 68 266 q 458 411 276 409 l 458 461 q 356 609 458 609 q 273 593 313 609 q 209 558 233 577 q 169 522 184 538 l 155 506 l 94 595 q 113 613 100 602 q 160 648 126 625 q 250 687 194 672 q 369 702 305 702 q 555 620 502 702 q 763 704 636 704 m 301 81 q 381 109 337 81 q 451 162 425 136 l 477 188 q 458 326 458 251 q 406 321 440 326 q 320 304 373 316 q 229 260 266 291 q 193 184 193 229 q 220 113 193 144 q 301 81 248 81 m 747 613 q 591 416 630 613 l 870 426 q 838 556 866 500 q 747 613 809 613 "},"®":{"x_min":0,"x_max":0,"ha":1097,"o":"m 783 216 l 672 216 l 545 395 l 506 395 l 506 275 q 513 216 506 265 l 411 216 l 411 632 l 402 705 l 552 705 q 672 666 623 705 q 722 555 722 626 q 698 474 722 512 q 629 416 675 436 l 783 216 m 540 451 q 599 484 572 451 q 626 555 626 516 q 600 620 626 594 q 540 647 573 647 l 506 647 l 506 451 l 540 451 m 1020 473 q 884 118 1020 254 q 526 -18 748 -18 q 203 111 330 -18 q 76 433 76 240 q 215 786 76 651 q 583 922 355 922 q 897 793 773 922 q 1020 473 1020 665 m 934 455 q 827 740 934 629 q 554 851 720 851 q 279 736 393 851 q 165 450 165 622 q 277 168 165 280 q 556 55 388 55 q 823 170 712 55 q 934 455 934 284 "},"É":{"x_min":0,"x_max":0,"ha":695,"o":"m 155 0 l 155 786 l 137 913 l 612 913 l 612 811 l 280 811 l 280 519 l 570 519 l 543 416 l 280 416 l 280 102 l 627 102 l 600 0 l 155 0 m 450 1215 l 602 1215 l 354 988 l 277 1016 l 450 1215 "},"~":{"x_min":0,"x_max":0,"ha":803,"o":"m 734 373 q 544 287 651 287 q 382 331 472 287 q 244 376 293 376 q 108 316 176 376 l 68 401 q 254 477 155 477 q 411 433 325 477 q 552 388 497 388 q 693 455 619 388 l 734 373 "},"³":{"x_min":0,"x_max":0,"ha":485,"o":"m 395 813 q 367 738 395 773 q 291 688 338 702 q 379 645 343 680 q 416 547 416 611 q 347 427 416 465 q 176 388 277 388 q 83 397 170 388 l 62 477 q 150 466 118 466 q 304 547 304 466 q 261 616 304 591 q 169 640 218 640 l 180 695 q 286 801 286 740 q 225 857 286 857 q 165 845 194 857 q 125 822 137 833 l 111 811 l 73 882 q 229 933 137 933 q 346 901 297 933 q 395 813 395 869 "},"¡":{"x_min":0,"x_max":0,"ha":367,"o":"m 93 844 q 117 906 93 880 q 176 932 141 932 q 235 906 211 932 q 259 844 259 880 q 235 784 259 809 q 176 759 211 759 q 117 784 141 759 q 93 844 93 809 m 109 -136 l 130 650 l 223 663 l 241 5 l 259 -118 l 109 -136 "},"[":{"x_min":0,"x_max":0,"ha":357,"o":"m 331 1005 l 331 919 l 219 919 l 219 -8 l 331 -8 l 331 -95 l 108 -95 l 108 1005 l 331 1005 "},"L":{"x_min":0,"x_max":0,"ha":647,"o":"m 155 0 l 155 786 l 137 913 l 280 913 l 280 105 l 638 105 l 611 0 l 155 0 "}," ":{"x_min":0,"x_max":0,"ha":375},"∑":{"x_min":0,"x_max":0,"ha":590,"o":"m 291 709 l 341 626 l 426 680 l 426 575 l 530 575 l 477 490 l 566 438 l 479 387 l 531 302 l 426 302 l 426 202 l 343 252 l 290 162 l 238 251 l 155 198 l 155 302 l 52 302 l 105 390 l 19 441 l 104 491 l 55 575 l 156 575 l 156 673 l 241 625 l 291 709 "},"%":{"x_min":0,"x_max":0,"ha":1108,"o":"m 448 850 q 512 704 512 788 q 448 557 512 619 q 300 495 384 495 q 154 557 216 495 q 91 704 91 619 q 154 850 91 788 q 300 912 216 912 q 448 850 384 912 m 430 707 q 391 794 430 757 q 301 832 351 832 q 211 795 248 832 q 173 707 173 758 q 211 614 173 657 q 301 572 248 572 q 395 613 359 572 q 430 707 430 655 m 969 336 q 1033 190 1033 275 q 969 43 1033 105 q 820 -18 905 -18 q 675 43 737 -18 q 612 190 612 105 q 675 336 612 275 q 820 398 737 398 q 969 336 905 398 m 951 193 q 911 280 951 243 q 822 318 872 318 q 732 281 769 318 q 694 193 694 244 q 732 100 694 143 q 822 58 769 58 q 916 100 880 58 q 951 193 951 141 m 918 898 l 305 0 l 193 0 l 826 936 l 918 898 "},"P":{"x_min":0,"x_max":0,"ha":758,"o":"m 137 913 l 395 913 q 608 843 520 913 q 695 638 695 772 q 595 429 695 518 q 348 341 495 341 l 280 341 l 280 104 l 294 0 l 155 0 l 155 786 l 137 913 m 280 444 l 370 444 q 507 497 451 444 q 563 638 563 551 q 508 766 563 720 q 370 811 452 811 l 280 811 l 280 444 "},"∏":{"x_min":0,"x_max":0,"ha":590,"o":"m 511 657 l 511 223 l 80 223 l 80 657 l 511 657 "},"À":{"x_min":0,"x_max":0,"ha":793,"o":"m -2 0 l 350 913 l 434 932 l 718 152 l 787 0 l 636 0 l 548 238 l 208 238 l 118 0 l -2 0 m 368 662 l 245 344 l 513 344 l 398 663 l 384 718 l 368 662 m 176 1215 l 329 1215 l 501 1016 l 425 988 l 176 1215 "},"_":{"x_min":0,"x_max":0,"ha":625,"o":"m 663 -104 l 622 -187 l 2 -187 l 2 -104 l 663 -104 "},"ñ":{"x_min":0,"x_max":0,"ha":807,"o":"m 693 0 l 562 0 l 562 400 q 542 550 562 505 q 461 594 522 594 q 343 568 395 594 q 269 516 290 543 l 248 491 l 248 104 l 262 0 l 131 0 l 131 555 l 113 683 l 248 698 l 248 594 q 361 672 293 643 q 497 702 429 702 q 625 660 572 702 q 679 538 679 618 l 679 101 l 693 0 m 580 933 l 640 897 q 607 844 619 859 q 567 813 595 829 q 497 798 538 798 q 398 823 451 798 q 323 848 345 848 q 254 802 284 848 l 194 838 q 227 891 215 876 q 267 922 238 907 q 337 937 295 937 q 431 911 377 937 q 509 884 484 884 q 580 933 558 884 "},"+":{"x_min":0,"x_max":0,"ha":654,"o":"m 279 97 l 279 300 l 80 300 l 80 402 l 279 402 l 279 609 l 376 583 l 376 402 l 583 402 l 555 300 l 376 300 l 376 97 l 279 97 "},"‚":{"x_min":0,"x_max":0,"ha":375,"o":"m 133 -195 l 83 -147 q 136 -79 112 -119 q 161 -8 161 -40 q 150 31 161 18 q 111 56 140 45 l 111 69 q 134 131 111 106 q 194 156 156 156 q 253 131 229 156 q 277 56 277 105 q 240 -76 277 -2 q 133 -195 202 -150 "},"½":{"x_min":0,"x_max":0,"ha":986,"o":"m 920 -80 l 580 -80 l 572 -37 q 647 45 608 0 q 736 172 686 90 q 787 304 787 254 q 720 377 787 377 q 613 323 661 377 l 573 401 q 733 455 636 455 q 851 418 801 455 q 901 315 901 380 q 850 175 901 255 q 762 56 800 95 q 705 0 725 16 l 929 0 l 920 -80 m 788 793 l 330 130 l 243 130 l 718 820 l 788 793 m 66 397 l 66 461 l 176 461 l 176 829 l 87 801 l 62 863 l 281 934 l 281 461 l 390 461 l 381 397 l 66 397 "},"Æ":{"x_min":0,"x_max":0,"ha":1063,"o":"m 523 0 l 523 241 l 222 241 l 106 0 l -8 0 l 436 913 l 980 913 l 980 811 l 648 811 l 648 519 l 938 519 l 911 416 l 648 416 l 648 102 l 995 102 l 968 0 l 523 0 m 270 344 l 523 344 l 523 786 l 513 851 l 270 344 "},"Ë":{"x_min":0,"x_max":0,"ha":695,"o":"m 155 0 l 155 786 l 137 913 l 612 913 l 612 811 l 280 811 l 280 519 l 570 519 l 543 416 l 280 416 l 280 102 l 627 102 l 600 0 l 155 0 m 322 1086 q 301 1032 322 1054 q 252 1009 280 1009 q 204 1032 225 1009 q 183 1086 183 1054 q 204 1139 183 1116 q 252 1162 225 1162 q 301 1139 280 1162 q 322 1086 322 1116 m 577 1086 q 556 1032 577 1054 q 508 1009 536 1009 q 459 1032 480 1009 q 438 1086 438 1054 q 459 1139 438 1116 q 508 1162 480 1162 q 556 1139 536 1162 q 577 1086 577 1116 "},"'":{"x_min":0,"x_max":0,"ha":322,"o":"m 123 754 l 98 909 l 223 932 l 222 593 l 120 591 l 123 754 "},"Š":{"x_min":0,"x_max":0,"ha":667,"o":"m 75 84 l 88 204 q 109 183 95 195 q 154 144 122 170 q 234 100 187 118 q 327 81 280 81 q 433 122 390 81 q 476 233 476 163 q 435 324 476 283 q 336 396 394 365 q 218 461 277 427 q 118 548 159 495 q 77 669 77 601 q 154 854 77 777 q 345 930 230 930 q 575 865 472 930 l 538 763 q 472 803 534 775 q 341 832 409 832 q 248 797 288 832 q 208 707 208 763 q 248 610 208 652 q 346 537 288 568 q 461 472 404 506 q 559 382 519 438 q 600 251 600 326 q 524 56 600 131 q 323 -18 448 -18 q 188 7 251 -18 q 100 58 126 33 l 75 84 m 386 988 l 294 988 l 122 1187 l 198 1215 l 340 1086 l 481 1215 l 558 1187 l 386 988 "},"ª":{"x_min":0,"x_max":0,"ha":563,"o":"m 129 773 l 73 850 q 96 872 81 859 q 165 909 111 886 q 284 932 220 932 q 403 900 356 932 q 450 798 450 868 l 450 522 q 461 466 450 494 q 486 422 473 437 l 497 406 l 388 391 q 354 458 355 412 q 281 411 326 430 q 202 391 237 391 q 93 431 131 391 q 54 526 54 472 q 131 654 54 604 q 345 708 208 705 l 345 751 q 277 859 345 859 q 201 838 238 859 q 147 794 163 816 l 129 773 m 236 469 q 345 530 288 469 l 345 645 q 161 543 161 633 q 180 491 161 513 q 236 469 200 469 "},"Œ":{"x_min":0,"x_max":0,"ha":1161,"o":"m 1079 913 l 1079 811 l 747 811 l 747 519 l 1037 519 l 1009 416 l 747 416 l 747 102 l 1094 102 l 1066 0 l 487 0 q 180 131 297 0 q 63 462 63 263 q 175 797 63 680 q 445 913 287 913 l 1079 913 m 198 454 q 276 200 198 306 q 470 93 354 93 l 622 93 l 622 826 l 470 826 q 276 715 354 826 q 198 454 198 604 "},"ﬀ":{"x_min":0,"x_max":0,"ha":911,"o":"m 595 588 l 256 588 l 256 143 l 270 0 l 140 0 l 140 588 l 55 588 l 55 683 l 140 683 l 140 770 q 170 894 140 838 q 247 982 201 950 q 342 1030 293 1013 q 434 1047 391 1047 q 657 988 565 1047 q 797 1047 711 1047 q 957 1000 876 1047 l 911 895 q 811 937 861 937 q 740 904 768 937 q 712 809 712 870 l 712 683 l 907 683 l 865 588 l 712 588 l 712 143 l 726 0 l 595 0 l 595 588 m 595 784 q 607 887 595 848 q 448 945 527 945 q 311 896 366 945 q 256 782 256 847 l 256 683 l 595 683 l 595 784 "},"˛":{"x_min":0,"x_max":0,"ha":383,"o":"m 201 0 l 290 0 q 253 -36 275 -13 q 195 -109 231 -58 q 158 -193 158 -161 q 205 -238 158 -229 q 295 -240 252 -247 l 295 -322 q 269 -323 288 -323 q 68 -209 68 -323 q 101 -111 68 -163 q 168 -30 134 -59 l 201 0 "},"ð":{"x_min":0,"x_max":0,"ha":761,"o":"m 212 833 l 366 900 q 215 961 286 961 l 269 1048 q 484 952 383 1044 q 563 986 513 963 q 633 1016 613 1008 l 634 947 l 530 901 q 653 672 608 807 q 698 405 698 538 q 613 102 698 222 q 361 -18 529 -18 q 221 17 280 -18 q 134 97 162 52 q 89 199 105 141 q 70 284 73 256 q 68 330 68 312 q 156 591 68 481 q 368 701 244 701 q 541 637 459 701 q 419 851 491 770 l 238 773 l 212 833 m 247 536 q 195 343 195 456 q 247 150 195 229 q 383 70 298 70 q 517 156 466 70 q 568 426 568 243 q 556 538 568 491 q 474 592 525 569 q 383 615 423 615 q 247 536 298 615 "},"T":{"x_min":0,"x_max":0,"ha":731,"o":"m 6 808 l 6 913 l 723 913 l 723 808 l 423 808 l 423 104 l 437 0 l 298 0 l 298 808 l 6 808 "},"š":{"x_min":0,"x_max":0,"ha":596,"o":"m 83 62 l 95 175 q 111 159 101 169 q 148 129 122 150 q 213 95 175 109 q 293 81 252 81 q 415 175 415 81 q 380 235 415 208 q 295 284 345 262 q 195 331 245 305 q 111 400 145 356 q 76 500 76 443 q 142 647 76 591 q 308 704 208 704 q 508 657 429 704 l 475 545 q 297 615 406 615 q 224 591 254 615 q 194 533 194 568 q 229 463 194 493 q 313 412 263 433 q 413 367 363 391 q 498 299 463 343 q 533 193 533 255 q 467 40 533 100 q 291 -18 401 -18 q 177 2 229 -18 q 104 41 125 22 l 83 62 m 352 779 l 261 779 l 88 977 l 165 1005 l 306 876 l 448 1005 l 525 977 l 352 779 "},"Þ":{"x_min":0,"x_max":0,"ha":758,"o":"m 137 1036 l 280 1050 l 280 830 l 395 830 q 608 759 520 830 q 695 555 695 688 q 595 346 695 434 q 348 258 495 258 l 280 258 l 280 104 l 294 0 l 155 0 l 155 880 l 137 1036 m 280 361 l 370 361 q 506 418 448 361 q 563 555 563 476 q 508 682 563 637 q 370 727 452 727 l 280 727 l 280 361 "},"j":{"x_min":0,"x_max":0,"ha":375,"o":"m 132 838 q 111 890 111 861 q 131 941 111 919 q 183 962 152 962 q 232 941 211 962 q 254 890 254 919 q 232 838 254 861 q 183 815 211 815 q 132 838 154 815 m 248 698 l 248 -16 q 183 -247 248 -159 q 18 -337 118 -336 l -27 -241 q 131 -16 131 -241 l 131 555 l 113 683 l 248 698 "},"1":{"x_min":0,"x_max":0,"ha":556,"o":"m 68 0 l 68 91 l 238 91 l 238 679 l 94 634 l 59 719 l 355 818 l 355 91 l 527 91 l 513 0 l 68 0 "},"›":{"x_min":0,"x_max":0,"ha":517,"o":"m 309 341 l 69 572 l 123 661 l 461 343 l 123 25 l 69 113 l 309 341 "},"ı":{"x_min":0,"x_max":0,"ha":381,"o":"m 248 698 l 248 104 l 262 0 l 131 0 l 131 555 l 113 683 l 248 698 "},"ä":{"x_min":0,"x_max":0,"ha":703,"o":"m 156 505 l 94 595 q 113 613 100 602 q 159 648 126 625 q 248 687 193 672 q 366 702 304 702 q 516 659 456 702 q 575 525 575 616 l 575 156 q 590 80 575 119 q 622 20 605 41 l 637 0 l 508 -18 q 468 95 469 34 q 374 16 438 51 q 247 -18 309 -18 q 120 30 173 -18 q 68 154 68 79 q 177 340 68 269 q 458 411 286 411 l 458 461 q 354 609 458 609 q 270 593 309 609 q 206 557 230 577 q 169 522 183 537 l 156 505 m 298 81 q 386 110 340 81 q 458 168 431 138 l 458 322 q 193 175 193 312 q 220 109 193 137 q 298 81 247 81 m 290 876 q 269 822 290 844 q 220 800 248 800 q 172 822 193 800 q 151 876 151 844 q 172 929 151 907 q 220 952 193 952 q 269 929 248 952 q 290 876 290 907 m 545 876 q 525 822 545 844 q 476 800 504 800 q 427 822 448 800 q 406 876 406 844 q 427 929 406 907 q 476 952 448 952 q 525 929 504 952 q 545 876 545 907 "},"<":{"x_min":0,"x_max":0,"ha":513,"o":"m 447 572 l 206 341 l 447 113 l 393 25 l 55 343 l 393 661 l 447 572 "},"£":{"x_min":0,"x_max":0,"ha":763,"o":"m 707 -141 l 56 -141 q 87 -70 69 -115 q 135 98 105 -26 q 165 330 165 223 l 165 379 l 80 379 l 80 473 l 165 473 l 165 770 q 194 894 165 838 q 268 982 223 950 q 361 1030 313 1013 q 452 1047 409 1047 q 594 1025 529 1047 q 686 980 659 1002 l 712 958 l 665 848 q 636 875 655 859 q 566 918 618 891 q 466 945 513 945 q 336 897 386 945 q 286 782 286 848 l 286 473 l 573 473 l 531 379 l 286 379 l 286 318 q 269 134 286 223 q 236 2 252 45 l 220 -38 l 734 -38 l 707 -141 "},"¹":{"x_min":0,"x_max":0,"ha":417,"o":"m 66 397 l 66 461 l 176 461 l 176 829 l 87 801 l 62 863 l 281 934 l 281 461 l 390 461 l 381 397 l 66 397 "},"t":{"x_min":0,"x_max":0,"ha":510,"o":"m 269 823 l 255 683 l 468 683 l 426 588 l 255 588 l 255 181 q 331 93 255 93 q 481 150 422 93 l 501 44 q 304 -18 422 -18 q 184 33 230 -18 q 138 193 138 84 l 138 588 l 54 588 l 54 683 l 138 683 l 138 808 l 269 823 "},"¬":{"x_min":0,"x_max":0,"ha":1683,"o":"m 62 340 l 794 581 l 794 101 l 62 340 m 1493 287 q 1472 340 1472 309 q 1493 392 1472 370 q 1545 413 1515 413 q 1598 392 1576 413 q 1620 340 1620 370 q 1599 286 1620 308 q 1545 265 1577 265 q 1493 287 1515 265 m 1209 287 q 1187 340 1187 309 q 1209 392 1187 370 q 1261 413 1230 413 q 1313 392 1291 413 q 1336 340 1336 370 q 1313 286 1336 308 q 1261 265 1291 265 q 1209 287 1230 265 m 931 287 q 909 340 909 309 q 931 392 909 370 q 983 413 952 413 q 1036 392 1013 413 q 1058 340 1058 370 q 1036 286 1058 308 q 983 265 1013 265 q 931 287 952 265 "},"ù":{"x_min":0,"x_max":0,"ha":799,"o":"m 565 102 q 450 16 525 51 q 306 -18 376 -18 q 178 24 231 -18 q 125 145 125 66 l 125 555 l 106 683 l 241 698 l 241 284 q 261 134 241 179 q 343 90 281 90 q 436 106 393 90 q 504 142 480 122 q 541 177 529 162 l 555 194 l 555 555 l 537 683 l 672 698 l 672 156 q 687 80 672 119 q 719 20 702 41 l 734 0 l 605 -18 q 565 102 565 38 m 179 1005 l 331 1005 l 504 807 l 427 779 l 179 1005 "},"W":{"x_min":0,"x_max":0,"ha":1283,"o":"m 1283 913 l 923 -18 l 837 0 l 672 452 l 647 538 l 623 451 l 443 -18 l 365 0 l 88 761 l 8 913 l 172 913 l 390 302 l 419 186 l 455 302 l 594 668 l 501 913 l 644 913 l 862 302 l 891 186 l 927 302 l 1158 913 l 1283 913 "},"ï":{"x_min":0,"x_max":0,"ha":381,"o":"m 248 698 l 248 104 l 262 0 l 131 0 l 131 555 l 113 683 l 248 698 m 131 876 q 111 822 131 844 q 62 800 90 800 q 13 822 34 800 q -6 876 -6 844 q 13 929 -6 907 q 62 952 34 952 q 111 929 90 952 q 131 876 131 907 m 387 876 q 366 822 387 844 q 318 800 345 800 q 269 822 290 800 q 248 876 248 844 q 269 929 248 907 q 318 952 290 952 q 366 929 345 952 q 387 876 387 907 "},">":{"x_min":0,"x_max":0,"ha":513,"o":"m 297 341 l 56 572 l 111 661 l 448 343 l 111 25 l 56 113 l 297 341 "},"v":{"x_min":0,"x_max":0,"ha":660,"o":"m 651 701 l 363 -18 l 259 0 l 69 568 l 8 683 l 144 701 l 304 238 l 325 137 l 354 238 l 529 683 l 651 701 "},"û":{"x_min":0,"x_max":0,"ha":799,"o":"m 565 102 q 450 16 525 51 q 306 -18 376 -18 q 178 24 231 -18 q 125 145 125 66 l 125 555 l 106 683 l 241 698 l 241 284 q 261 134 241 179 q 343 90 281 90 q 436 106 393 90 q 504 142 480 122 q 541 177 529 162 l 555 194 l 555 555 l 537 683 l 672 698 l 672 156 q 687 80 672 119 q 719 20 702 41 l 734 0 l 605 -18 q 565 102 565 38 m 355 1005 l 441 1005 l 613 807 l 540 779 l 397 908 l 256 779 l 183 807 l 355 1005 "},"Ò":{"x_min":0,"x_max":0,"ha":945,"o":"m 480 930 q 778 802 675 930 q 882 465 882 673 q 761 122 882 262 q 462 -18 640 -18 q 170 115 277 -18 q 63 448 63 248 q 183 791 63 651 q 480 930 302 930 m 276 723 q 200 456 200 615 q 276 190 200 298 q 473 81 352 81 q 670 190 594 81 q 745 456 745 298 q 670 723 745 615 q 473 832 594 832 q 276 723 352 832 m 251 1215 l 404 1215 l 576 1016 l 500 988 l 251 1215 "},"&":{"x_min":0,"x_max":0,"ha":1054,"o":"m 938 -30 q 691 113 830 5 q 380 -18 577 -18 q 175 54 256 -18 q 93 251 93 126 q 143 402 93 333 q 286 543 194 470 q 169 818 169 716 q 239 986 169 923 q 430 1048 309 1048 q 597 995 536 1048 q 659 855 659 941 q 641 771 659 812 q 584 688 623 730 q 515 620 545 647 q 427 550 484 594 l 422 545 q 683 263 533 398 q 727 386 712 320 q 743 570 743 451 q 740 683 743 600 l 1018 683 l 990 587 l 841 587 q 843 534 843 569 q 757 204 843 340 q 1019 52 916 76 l 938 -30 m 266 138 q 426 77 316 77 q 620 172 536 77 q 337 473 462 309 q 246 376 276 420 q 216 281 216 331 q 266 138 216 200 m 286 836 q 376 611 286 751 q 502 725 459 675 q 545 832 545 776 q 511 917 545 876 q 415 958 477 958 q 322 925 358 958 q 286 836 286 891 "},"˝":{"x_min":0,"x_max":0,"ha":813,"o":"m 266 1005 l 419 1005 l 170 779 l 94 807 l 266 1005 m 520 1005 l 673 1005 l 425 779 l 348 807 l 520 1005 "},"Ð":{"x_min":0,"x_max":0,"ha":943,"o":"m 55 519 l 170 519 l 170 786 l 152 913 l 498 913 q 768 797 657 913 q 880 462 880 680 q 763 131 880 263 q 456 0 647 0 l 170 0 l 170 416 l 55 416 l 55 519 m 473 826 l 295 826 l 295 519 l 481 519 l 454 416 l 295 416 l 295 93 l 473 93 q 668 200 590 93 q 745 454 745 306 q 668 715 745 604 q 473 826 590 826 "},"I":{"x_min":0,"x_max":0,"ha":433,"o":"m 280 913 l 280 104 l 294 0 l 155 0 l 155 786 l 137 913 l 280 913 "},"G":{"x_min":0,"x_max":0,"ha":914,"o":"m 801 451 l 802 34 q 486 -18 662 -18 q 188 103 313 -18 q 62 437 62 225 q 187 790 62 650 q 497 930 312 930 q 795 816 670 930 l 732 722 q 498 827 630 827 q 284 713 372 827 q 195 451 195 600 q 290 185 195 288 q 511 81 386 81 q 619 94 558 81 l 680 105 l 682 348 l 658 451 l 801 451 "},"`":{"x_min":0,"x_max":0,"ha":469,"o":"m 50 1005 l 202 1005 l 375 807 l 298 779 l 50 1005 "},"·":{"x_min":0,"x_max":0,"ha":358,"o":"m 258 340 q 234 278 258 304 q 175 252 209 252 q 115 278 140 252 q 91 340 91 304 q 115 400 91 375 q 175 425 140 425 q 234 400 209 425 q 258 340 258 375 "},"r":{"x_min":0,"x_max":0,"ha":539,"o":"m 552 665 l 505 551 q 434 580 472 580 q 306 512 365 580 q 248 354 248 444 l 248 104 l 262 0 l 131 0 l 131 555 l 113 683 l 248 698 l 248 545 q 465 704 337 704 q 552 665 515 704 "},"¿":{"x_min":0,"x_max":0,"ha":596,"o":"m 329 675 l 440 638 q 445 591 445 608 q 419 478 445 531 q 355 384 393 425 q 280 303 318 343 q 216 213 243 263 q 190 111 190 163 q 228 15 190 54 q 337 -22 266 -22 q 426 -5 376 -22 q 476 15 476 11 l 523 -97 q 337 -137 440 -137 q 134 -72 212 -137 q 55 94 55 -8 q 77 206 55 152 q 129 298 98 259 q 198 377 161 337 q 267 450 236 418 q 320 525 298 483 q 341 607 341 566 l 329 675 m 279 844 q 305 906 279 880 q 368 932 331 932 q 430 906 404 932 q 456 844 456 880 q 430 784 456 809 q 368 759 404 759 q 305 784 331 759 q 279 844 279 809 "},"ý":{"x_min":0,"x_max":0,"ha":660,"o":"m 651 701 l 323 -116 q 213 -280 280 -223 q 72 -337 147 -337 q 0 -322 38 -337 l -19 -204 q 51 -218 19 -218 q 230 -70 173 -218 l 259 5 l 69 568 l 8 683 l 144 701 l 306 238 l 325 137 l 354 238 l 529 683 l 651 701 m 426 1005 l 579 1005 l 330 779 l 254 807 l 426 1005 "},"x":{"x_min":0,"x_max":0,"ha":620,"o":"m 618 701 l 381 372 l 619 0 l 475 0 l 329 237 l 308 277 l 288 237 l 126 0 l 0 0 l 252 359 l 109 584 l 23 683 l 172 701 l 306 488 l 320 454 l 341 488 l 477 683 l 618 701 "},"è":{"x_min":0,"x_max":0,"ha":683,"o":"m 377 704 q 613 377 602 704 l 581 341 l 194 341 q 246 163 197 237 q 390 88 295 88 q 497 112 443 88 q 580 159 551 136 l 608 183 l 627 77 q 607 61 620 72 q 559 30 594 51 q 470 -4 523 9 q 356 -18 416 -18 q 149 86 227 -18 q 70 329 70 191 q 149 596 70 488 q 377 704 227 704 m 361 613 q 201 430 237 613 l 487 430 q 454 557 483 501 q 361 613 425 613 m 147 1005 l 300 1005 l 472 807 l 395 779 l 147 1005 "},"º":{"x_min":0,"x_max":0,"ha":614,"o":"m 62 652 q 134 854 62 776 q 325 933 205 933 q 488 866 426 933 q 551 672 551 800 q 480 472 551 554 q 288 391 409 391 q 180 418 226 391 q 113 477 134 444 q 79 554 91 511 q 64 618 66 597 q 62 652 62 638 m 211 805 q 175 662 175 747 q 211 519 175 577 q 305 461 247 461 q 401 519 365 461 q 437 662 437 577 q 401 805 437 747 q 305 863 365 863 q 211 805 247 863 "},"Ø":{"x_min":0,"x_max":0,"ha":945,"o":"m 480 930 q 543 926 513 930 l 572 1048 l 651 1048 l 618 909 q 813 749 745 868 q 882 465 882 630 q 761 122 882 262 q 462 -16 640 -16 q 397 -11 425 -16 l 369 -126 l 294 -126 l 325 5 q 132 170 201 50 q 63 448 63 290 q 183 791 63 651 q 480 930 302 930 m 745 456 q 704 662 745 570 q 591 798 663 754 l 420 88 q 473 83 443 83 q 670 190 594 83 q 745 456 745 298 m 200 456 q 240 253 200 344 q 351 118 280 162 l 519 826 q 473 832 498 832 q 276 723 352 832 q 200 456 200 615 "},"∞":{"x_min":0,"x_max":0,"ha":860},"μ":{"x_min":0,"x_max":0,"ha":721},"÷":{"x_min":0,"x_max":0,"ha":657,"o":"m 120 395 l 551 395 l 523 300 l 120 300 l 120 395 m 409 565 q 385 503 409 529 q 326 477 361 477 q 267 503 291 477 q 243 565 243 529 q 267 625 243 600 q 326 650 291 650 q 385 625 361 650 q 409 565 409 600 m 409 145 q 385 84 409 109 q 326 58 361 58 q 267 84 291 58 q 243 145 243 109 q 267 205 243 180 q 326 230 291 230 q 385 205 361 230 q 409 145 409 180 "},"h":{"x_min":0,"x_max":0,"ha":803,"o":"m 693 0 l 562 0 l 562 400 q 542 550 562 505 q 461 594 522 594 q 343 568 395 594 q 269 516 290 543 l 248 491 l 248 104 l 262 0 l 131 0 l 131 905 l 113 1033 l 248 1048 l 248 594 q 361 672 293 643 q 497 702 429 702 q 625 660 572 702 q 679 538 679 618 l 679 101 l 693 0 "},".":{"x_min":0,"x_max":0,"ha":375,"o":"m 270 69 q 246 7 270 33 q 187 -18 222 -18 q 128 7 152 -18 q 104 69 104 33 q 128 129 104 104 q 187 154 152 154 q 246 129 222 154 q 270 69 270 104 "},";":{"x_min":0,"x_max":0,"ha":358,"o":"m 268 452 q 243 391 268 416 q 184 365 219 365 q 125 391 150 365 q 101 452 101 416 q 125 512 101 487 q 184 537 150 537 q 243 512 219 537 q 268 452 268 487 m 120 -195 l 70 -147 q 124 -79 100 -119 q 148 -8 148 -40 q 138 31 148 18 q 98 56 127 45 l 98 69 q 121 131 98 106 q 181 156 144 156 q 240 131 216 156 q 265 56 265 105 q 227 -76 265 -2 q 120 -195 190 -150 "},"f":{"x_min":0,"x_max":0,"ha":456,"o":"m 55 588 l 55 683 l 140 683 l 140 784 q 197 983 140 919 q 341 1047 254 1047 q 501 1000 420 1047 l 455 895 q 355 937 405 937 q 284 904 312 937 q 256 809 256 870 l 256 683 l 451 683 l 409 588 l 256 588 l 256 143 l 270 0 l 140 0 l 140 588 l 55 588 "},"“":{"x_min":0,"x_max":0,"ha":618,"o":"m 241 936 l 291 887 q 238 820 262 859 q 213 748 213 780 q 224 708 213 722 q 263 683 234 694 q 243 611 263 640 q 180 583 222 583 q 121 609 145 583 q 97 683 97 634 q 134 816 97 743 q 241 936 172 890 m 484 936 l 534 887 q 481 820 505 859 q 456 748 456 780 q 467 708 456 722 q 506 683 477 694 q 486 611 506 640 q 423 583 465 583 q 364 609 388 583 q 340 683 340 634 q 377 816 340 743 q 484 936 415 890 "},"A":{"x_min":0,"x_max":0,"ha":793,"o":"m -2 0 l 350 913 l 434 932 l 718 152 l 787 0 l 636 0 l 548 238 l 208 238 l 118 0 l -2 0 m 368 662 l 245 344 l 513 344 l 398 663 l 384 718 l 368 662 "},"6":{"x_min":0,"x_max":0,"ha":695,"o":"m 395 584 q 569 515 498 584 q 640 316 640 445 q 561 78 640 175 q 347 -18 483 -18 q 180 46 248 -18 q 84 206 112 111 q 55 419 55 302 q 158 801 55 673 q 425 929 261 929 q 536 909 480 929 q 625 850 593 888 l 576 755 q 511 811 555 788 q 418 833 466 833 q 262 753 327 833 q 183 518 197 673 q 395 584 287 584 m 370 80 q 476 140 438 80 q 513 277 513 200 q 464 433 513 380 q 337 486 415 486 q 180 426 255 486 q 197 260 181 333 q 257 134 213 187 q 370 80 301 80 "},"‘":{"x_min":0,"x_max":0,"ha":375,"o":"m 241 936 l 291 887 q 238 820 262 859 q 213 748 213 780 q 224 708 213 722 q 263 683 234 694 q 243 611 263 640 q 180 583 222 583 q 121 609 145 583 q 97 683 97 634 q 134 816 97 743 q 241 936 172 890 "},"π":{"x_min":0,"x_max":0,"ha":590,"o":"m 93 680 l 543 438 l 93 200 l 93 680 "},"O":{"x_min":0,"x_max":0,"ha":945,"o":"m 480 930 q 778 802 675 930 q 882 465 882 673 q 761 122 882 262 q 462 -18 640 -18 q 170 115 277 -18 q 63 448 63 248 q 183 791 63 651 q 480 930 302 930 m 276 723 q 200 456 200 615 q 276 190 200 298 q 473 81 352 81 q 670 190 594 81 q 745 456 745 298 q 670 723 745 615 q 473 832 594 832 q 276 723 352 832 "},"n":{"x_min":0,"x_max":0,"ha":807,"o":"m 693 0 l 562 0 l 562 400 q 542 550 562 505 q 461 594 522 594 q 343 568 395 594 q 269 516 290 543 l 248 491 l 248 104 l 262 0 l 131 0 l 131 555 l 113 683 l 248 698 l 248 594 q 361 672 293 643 q 497 702 429 702 q 625 660 572 702 q 679 538 679 618 l 679 101 l 693 0 "},"3":{"x_min":0,"x_max":0,"ha":695,"o":"m 554 634 q 394 433 554 511 q 541 350 487 420 q 594 193 594 279 q 472 -50 594 40 q 165 -141 350 -141 q 115 -140 131 -141 l 86 -45 q 147 -48 105 -48 q 256 -36 202 -48 q 358 2 309 -23 q 436 73 406 27 q 465 180 465 119 q 399 311 465 259 q 250 365 333 362 l 268 447 q 425 616 425 520 q 390 695 425 665 q 306 726 355 726 q 148 647 223 726 l 98 744 q 319 818 190 818 q 486 769 418 818 q 554 634 554 720 "},"9":{"x_min":0,"x_max":0,"ha":695,"o":"m 294 213 q 120 283 191 213 q 50 481 50 352 q 128 720 50 623 q 343 816 206 816 q 509 752 441 816 q 606 591 577 687 q 634 379 634 495 q 530 -18 634 122 q 265 -158 426 -158 q 153 -138 209 -158 q 65 -79 97 -118 l 113 15 q 179 -40 134 -18 q 272 -62 223 -62 q 426 29 359 -62 q 506 280 493 122 q 294 213 402 213 m 319 718 q 213 658 251 718 q 176 520 176 598 q 225 365 176 418 q 352 312 275 312 q 509 372 434 312 q 492 538 508 465 q 432 664 476 611 q 319 718 388 718 "},"l":{"x_min":0,"x_max":0,"ha":381,"o":"m 248 1048 l 248 104 l 262 0 l 131 0 l 131 905 l 113 1033 l 248 1048 "},"∂":{"x_min":0,"x_max":0,"ha":17,"o":"m 16 963 l 16 0 l 0 0 l 0 963 l 16 963 "},"4":{"x_min":0,"x_max":0,"ha":695,"o":"m 41 193 l 422 819 l 526 788 l 526 226 l 662 226 l 634 118 l 526 118 l 526 -34 l 540 -138 l 409 -138 l 409 118 l 55 118 l 41 193 m 412 226 l 412 576 l 419 657 l 380 569 l 200 261 l 175 226 l 412 226 "},"p":{"x_min":0,"x_max":0,"ha":768,"o":"m 131 -333 l 131 555 l 113 683 l 248 698 l 248 616 q 270 640 255 626 q 336 677 286 654 q 445 701 387 701 q 623 609 551 701 q 695 356 695 516 q 600 92 695 202 q 356 -18 504 -18 q 248 -9 326 -18 l 248 -229 l 262 -333 l 131 -333 m 248 81 l 252 80 q 263 79 255 80 q 281 78 272 79 q 304 76 291 77 q 329 74 316 75 q 354 72 341 73 q 379 72 368 72 q 511 153 455 72 q 566 344 566 234 q 520 531 566 459 q 405 602 475 602 q 325 580 363 602 q 266 536 286 558 l 248 512 l 248 81 "},"‡":{"x_min":0,"x_max":0,"ha":676,"o":"m 366 -340 l 251 -340 l 251 0 l 72 0 l 72 94 l 251 94 l 251 588 l 72 588 l 72 683 l 251 683 l 251 902 l 366 918 l 366 683 l 593 683 l 551 588 l 366 588 l 366 94 l 575 94 l 533 0 l 366 0 l 366 -340 "},"à":{"x_min":0,"x_max":0,"ha":703,"o":"m 156 505 l 94 595 q 113 613 100 602 q 159 648 126 625 q 248 687 193 672 q 366 702 304 702 q 516 659 456 702 q 575 525 575 616 l 575 156 q 590 80 575 119 q 622 20 605 41 l 637 0 l 508 -18 q 468 95 469 34 q 374 16 438 51 q 247 -18 309 -18 q 120 30 173 -18 q 68 154 68 79 q 177 340 68 269 q 458 411 286 411 l 458 461 q 354 609 458 609 q 270 593 309 609 q 206 557 230 577 q 169 522 183 537 l 156 505 m 298 81 q 386 110 340 81 q 458 168 431 138 l 458 322 q 193 175 193 312 q 220 109 193 137 q 298 81 247 81 m 129 1005 l 281 1005 l 454 807 l 377 779 l 129 1005 "},"Ü":{"x_min":0,"x_max":0,"ha":1010,"o":"m 745 350 l 745 786 l 727 913 l 862 913 l 862 365 q 759 88 862 194 q 487 -18 657 -18 q 349 5 409 -18 q 254 68 288 29 q 196 146 219 106 q 165 230 173 186 q 154 295 156 275 q 151 329 151 315 l 151 786 l 133 913 l 276 913 l 276 340 q 343 156 276 229 q 512 83 411 83 q 679 160 613 83 q 745 350 745 237 m 440 1086 q 419 1032 440 1054 q 370 1009 398 1009 q 322 1032 343 1009 q 301 1086 301 1054 q 322 1139 301 1116 q 370 1162 343 1162 q 419 1139 398 1162 q 440 1086 440 1116 m 695 1086 q 675 1032 695 1054 q 626 1009 654 1009 q 577 1032 598 1009 q 556 1086 556 1054 q 577 1139 556 1116 q 626 1162 598 1162 q 675 1139 654 1162 q 695 1086 695 1116 "},"ó":{"x_min":0,"x_max":0,"ha":768,"o":"m 68 330 q 160 599 68 494 q 408 704 252 704 q 619 616 538 704 q 700 356 700 527 q 607 90 700 200 q 361 -18 515 -18 q 221 17 280 -18 q 134 97 162 52 q 89 199 105 141 q 70 284 73 256 q 68 330 68 312 m 247 533 q 195 343 195 455 q 247 152 195 230 q 383 75 298 75 q 520 152 468 75 q 572 343 572 230 q 520 533 572 455 q 383 611 468 611 q 247 533 298 611 m 452 1005 l 605 1005 l 356 779 l 280 807 l 452 1005 "},"√":{"x_min":0,"x_max":0,"ha":1683,"o":"m 888 581 l 1620 340 l 888 101 l 888 581 m 189 392 q 211 340 211 370 q 189 287 211 309 q 137 265 168 265 q 84 286 105 265 q 62 340 62 308 q 84 392 62 370 q 137 413 106 413 q 189 392 168 413 m 474 392 q 495 340 495 370 q 474 287 495 309 q 422 265 452 265 q 369 286 391 265 q 347 340 347 308 q 369 392 347 370 q 422 413 391 413 q 474 392 452 413 m 752 392 q 773 340 773 370 q 752 287 773 309 q 700 265 730 265 q 647 286 669 265 q 625 340 625 308 q 647 392 625 370 q 700 413 669 413 q 752 392 730 413 "}}}
